<svg width="73" height="73" viewBox="0 0 73 73" fill="none" xmlns="http://www.w3.org/2000/svg">
<g id="akar-icons:check-in">
<g id="Group">
<path id="Vector" d="M36.5 6.27698C31.7261 6.27698 27.1477 8.1734 23.7721 11.5491C20.3964 14.9247 18.5 19.5031 18.5 24.277C18.5 28.534 19.406 31.321 21.875 34.402L36.5 51.277L51.125 34.402C53.594 31.321 54.5 28.534 54.5 24.277C54.5 19.5031 52.6036 14.9247 49.2279 11.5491C45.8523 8.1734 41.2739 6.27698 36.5 6.27698Z" stroke="white" stroke-width="4" stroke-linecap="round" stroke-linejoin="round"/>
<path id="Vector_2" d="M15.5 45.706C9.947 47.887 6.5 50.92 6.5 54.277C6.5 60.907 19.931 66.277 36.5 66.277C53.069 66.277 66.5 60.907 66.5 54.277C66.5 50.92 63.053 47.887 57.5 45.706" stroke="white" stroke-width="4" stroke-linecap="round" stroke-linejoin="round"/>
<path id="Vector_3" d="M36.5 27.277C38.1569 27.277 39.5 25.9338 39.5 24.277C39.5 22.6201 38.1569 21.277 36.5 21.277C34.8431 21.277 33.5 22.6201 33.5 24.277C33.5 25.9338 34.8431 27.277 36.5 27.277Z" stroke="white" stroke-width="4" stroke-linecap="round" stroke-linejoin="round"/>
</g>
</g>
</svg>
