<svg width="64" height="64" viewBox="0 0 64 64" fill="none" xmlns="http://www.w3.org/2000/svg">
<circle cx="31.5581" cy="31.7107" r="31.5" fill="#22325D"/>
<path d="M43.0581 36.7477V25.6737C43.0572 25.5137 43.0133 25.3568 42.9309 25.2188C42.8484 25.0808 42.7302 24.9665 42.5883 24.8875L32.505 19.3281C32.3691 19.2512 32.215 19.2107 32.0581 19.2107C31.9012 19.2107 31.7471 19.2512 31.6112 19.3281L21.5279 24.8875C21.386 24.9665 21.2678 25.0808 21.1854 25.2188C21.1029 25.3568 21.059 25.5137 21.0581 25.6737V36.7477C21.059 36.9076 21.1029 37.0646 21.1854 37.2026C21.2678 37.3406 21.386 37.4549 21.5279 37.5339L31.6112 43.0933C31.7471 43.1702 31.9012 43.2107 32.0581 43.2107C32.215 43.2107 32.3691 43.1702 32.505 43.0933L42.5883 37.5339C42.7302 37.4549 42.8484 37.3406 42.9309 37.2026C43.0133 37.0646 43.0572 36.9076 43.0581 36.7477V36.7477Z" stroke="white" stroke-width="2" stroke-linecap="round" stroke-linejoin="round"/>
<path d="M38.0581 34.2107V28.296L27.0581 22.2107" stroke="white" stroke-width="2" stroke-linecap="round" stroke-linejoin="round"/>
<path d="M43.0581 25.2107L32.1624 31.2107L21.0581 25.2107" stroke="white" stroke-width="2" stroke-linecap="round" stroke-linejoin="round"/>
<path d="M32.0581 31.2107V43.2107" stroke="white" stroke-width="2" stroke-linecap="round" stroke-linejoin="round"/>
</svg>
