<svg width="63" height="63" viewBox="0 0 63 63" fill="none" xmlns="http://www.w3.org/2000/svg">
<g clip-path="url(#clip0_2150_76)">
<path d="M60.4772 45.0314C59.3207 43.3317 57.3588 42.9168 55.2276 43.9197L54.098 44.417C55.8791 40.6207 56.1001 36.3888 55.2134 32.3915C54.1951 27.8005 51.7356 23.353 47.9032 19.1725C47.5644 18.8028 46.9901 18.7778 46.6202 19.1167C46.2505 19.4556 46.2256 20.0299 46.5645 20.3997C50.1787 24.3421 52.4921 28.509 53.4405 32.7847C54.4394 37.2886 53.8582 41.9332 51.3091 45.6449L40.006 50.6217L40.0153 49.3451C40.0155 49.3129 40.0141 49.2807 40.0108 49.2486C39.7499 46.6249 37.7443 44.5344 35.1336 44.1651C35.1259 44.1639 35.1181 44.1629 35.1103 44.1621L25.0642 43.0054C21.2012 42.4555 20.2063 40.1406 14.9746 38.8205C14.6131 35.7532 15.0949 32.4874 16.4156 29.2134C18.4045 24.2827 22.2957 19.4923 27.6899 15.3226C29.7004 16.7482 38.6702 16.9256 40.6774 15.0866C41.7058 15.8676 42.6872 16.6723 43.6015 17.4869C43.7745 17.6412 43.9903 17.717 44.2053 17.717C44.4552 17.717 44.7042 17.6145 44.8835 17.4131C45.2171 17.0387 45.1839 16.4647 44.8095 16.1311C43.8074 15.2382 42.7294 14.3573 41.5987 13.5059C41.8637 12.3824 41.4929 11.0674 40.5144 10.2847C43.3576 5.97226 44.1846 3.14969 43.0423 1.67089C42.2577 0.655036 41.2817 1.13178 40.8649 1.33546C40.1584 1.68034 39.7732 1.6985 39.1232 1.27322C37.8831 0.46177 36.5796 0.435614 35.2995 1.27322C34.6413 1.70395 34.1229 1.70395 33.4649 1.27322C32.2246 0.46177 30.9216 0.435614 29.6413 1.27322C28.9838 1.70359 28.5971 1.67695 27.9018 1.33134C27.4855 1.1244 26.5106 0.639778 25.721 1.65575C24.6044 3.0929 25.3515 5.82647 28.0028 9.99221C27.8404 10.08 27.6857 10.1831 27.5412 10.3008C26.4867 9.18718 24.7591 8.02577 22.2607 8.30477C20.1884 8.53666 18.6603 7.85188 17.7431 7.23672C17.3266 6.95772 16.7625 7.06889 16.4833 7.48521C16.204 7.90177 16.3153 8.46582 16.7318 8.74507C17.9009 9.52891 19.844 10.4015 22.4622 10.1096C24.3924 9.89304 25.7021 10.8795 26.5175 11.8833C26.5063 11.9221 26.496 11.9611 26.4865 12.0001C25.791 12.011 24.7517 12.0759 23.6071 12.3139C20.8544 12.8866 18.8111 14.1948 17.6978 16.0974C17.4446 16.5302 17.5902 17.0865 18.023 17.3398C18.4559 17.593 19.0121 17.4473 19.2653 17.0146C20.9211 14.1847 24.9629 13.8386 26.5682 13.817C26.5751 13.8369 26.5832 13.8567 26.5905 13.8765C20.8618 18.2956 16.8734 23.2238 14.7315 28.5337C13.3777 31.8901 12.8369 35.2526 13.1114 38.4482C12.2406 38.3193 11.3598 38.2502 10.4747 38.2441V37.695C10.4747 36.2419 9.29261 35.0599 7.8396 35.0599H3.67107C2.21807 35.0599 1.03595 36.2421 1.03595 37.695V58.8432C1.03595 60.2964 2.21807 61.4784 3.67107 61.4784H7.83948C9.29248 61.4784 10.4746 60.2963 10.4746 58.8432V58.5846L19.5677 61.969C20.7896 62.4237 22.0703 62.6544 23.3741 62.6544H36.9228C38.9942 62.6544 41.014 62.0683 42.7635 60.9597C60.8379 49.5018 59.7403 50.2147 59.8446 50.1222C61.3006 48.8299 61.5725 46.6412 60.4772 45.0314ZM38.9734 14.0106C35.6528 14.849 32.4242 14.849 29.1028 14.0106C27.6777 13.6503 28.0906 11.1086 29.6222 11.4927C32.5936 12.2386 35.4824 12.2386 38.454 11.4927C39.959 11.1149 40.4214 13.6446 38.9734 14.0106ZM27.0724 2.94734C27.0796 2.95085 27.0867 2.95449 27.0935 2.95788C28.3225 3.56867 29.3994 3.60185 30.6356 2.79307C32.1827 1.78036 32.3507 3.40411 34.382 3.40411C35.36 3.40411 35.8997 3.051 36.2937 2.79307C36.9521 2.36222 37.4706 2.36246 38.1289 2.79307C39.3706 3.60561 40.4214 3.56552 41.6862 2.95558C41.873 3.6291 41.4501 5.63695 38.7575 9.64588C37.4204 9.62312 35.48 10.9364 29.9869 9.71394C27.3001 5.65318 26.8846 3.62583 27.0724 2.94734ZM58.6882 48.7196L41.7915 59.4263C40.3332 60.3504 38.6496 60.839 36.9229 60.839H23.3742C22.2874 60.839 21.2199 60.6467 20.2012 60.2676L10.4746 56.6472V46.8683C10.4746 46.3667 10.0681 45.9602 9.56664 45.9602C9.06519 45.9602 8.65868 46.3667 8.65868 46.8683V58.8437C8.65868 59.2954 8.29116 59.6628 7.8396 59.6628H3.67107C3.21939 59.6628 2.85199 59.2953 2.85199 58.8437V37.6954C2.85199 37.2438 3.21939 36.8765 3.67107 36.8765H7.83948C8.29116 36.8765 8.65856 37.2439 8.65856 37.6954V42.6232C8.65856 43.1248 9.06507 43.5313 9.56652 43.5313C10.068 43.5313 10.4745 43.1248 10.4745 42.6232V40.0606C17.986 40.1182 19.6749 44.0773 24.8212 44.8052C24.8289 44.8064 24.8367 44.8074 24.8444 44.8082L34.89 45.9648C36.649 46.2187 38.0027 47.6194 38.1987 49.3829L38.1861 51.1102H28.8176C28.3162 51.1102 27.9096 51.5167 27.9096 52.0183C27.9096 52.5199 28.3161 52.9264 28.8176 52.9264H39.0875C39.2022 52.9264 39.3346 52.9009 39.4499 52.8507C39.4684 52.8424 55.9505 45.5857 55.9698 45.5772C57.1578 45.0492 58.241 44.9738 58.9756 46.0532C59.5466 46.892 59.4202 48.0261 58.6882 48.7196Z" fill="black"/>
<path d="M34.2774 41.8534C34.7788 41.8534 35.1855 41.4469 35.1855 40.9453V39.4401C37.7346 39.0264 39.222 36.9631 39.5456 35.0382C39.9498 32.6337 38.6903 30.5425 36.337 29.7107C35.9211 29.5637 35.5385 29.4231 35.1854 29.2874V23.4976C36.2596 23.6758 36.9045 24.2317 36.9515 24.2732C37.3204 24.6087 37.8912 24.5838 38.2297 24.2169C38.5697 23.8483 38.5464 23.2738 38.1778 22.9338C38.1138 22.8747 37.0016 21.8734 35.1854 21.664V20.3727C35.1854 19.8711 34.7788 19.4646 34.2773 19.4646C33.7758 19.4646 33.3693 19.8711 33.3693 20.3727V21.7374C33.1504 21.7793 32.9261 21.8326 32.6957 21.902C31.1554 22.3659 30.004 23.6867 29.6907 25.3487C29.4065 26.8569 29.8847 28.3074 30.9386 29.1339C31.5437 29.6085 32.3054 30.043 33.3693 30.5075V37.6885C32.3192 37.644 31.6728 37.4469 30.5452 36.7092C30.1256 36.4348 29.5627 36.5521 29.2882 36.972C29.0137 37.3916 29.1313 37.9544 29.551 38.2289C31.0333 39.1986 32.0242 39.4516 33.3693 39.5039V40.9453C33.3693 41.4469 33.7758 41.8534 34.2774 41.8534ZM32.0594 27.705C31.541 27.2984 31.3171 26.5244 31.4754 25.6851C31.6222 24.9067 32.1573 23.9609 33.2195 23.641C33.27 23.6257 33.3197 23.6127 33.3693 23.5993V28.5042C32.8256 28.2328 32.3992 27.9716 32.0594 27.705ZM35.7317 31.423C37.9913 32.2216 37.8514 34.1617 37.7546 34.7373C37.5543 35.929 36.6795 37.2012 35.1854 37.5841V31.2262C35.3622 31.2909 35.5427 31.3561 35.7317 31.423Z" fill="black"/>
</g>
<defs>
<clipPath id="clip0_2150_76">
<rect width="62" height="62" fill="white" transform="translate(0.0917969 0.655029)"/>
</clipPath>
</defs>
</svg>
