<svg width="74" height="72" viewBox="0 0 74 72" fill="none" xmlns="http://www.w3.org/2000/svg">
<g clip-path="url(#clip0_2150_447)">
<path d="M70.8431 48.3273C72.063 48.3272 73.0554 47.3484 73.0554 46.1452V34.8726C73.0554 33.6694 72.063 32.6907 70.8431 32.6907H66.1978V31.4908C66.1978 28.4086 64.6159 25.5826 61.9662 23.9317C61.6457 23.732 61.4372 23.3924 61.4084 23.023L60.5444 11.9448C61.1909 11.5636 61.626 10.8682 61.626 10.0728V7.81817C61.626 6.61498 60.6337 5.63623 59.4138 5.63623H54.8421C53.6222 5.63623 52.6298 6.61498 52.6298 7.81817V10.0727C52.6298 10.868 53.0649 11.5634 53.7115 11.9447L52.8475 23.0227C52.8187 23.3921 52.6101 23.7317 52.2897 23.9314C49.64 25.5825 48.0581 28.4083 48.0581 31.4906V32.6904H45.6252V31.4906C45.6252 28.4082 44.0433 25.5823 41.3936 23.9314C41.0731 23.7317 40.8646 23.3921 40.8358 23.0227L39.9718 11.9445C40.6183 11.5633 41.0534 10.8679 41.0534 10.0725V7.81817C41.0534 6.61498 40.0611 5.63623 38.8412 5.63623H34.2695C33.0496 5.63623 32.0573 6.61498 32.0573 7.81817V10.0727C32.0573 10.868 32.4925 11.5634 33.1389 11.9447L32.2749 23.0228C32.2461 23.3921 32.0376 23.7319 31.7171 23.9315C29.0674 25.5825 27.4855 28.4083 27.4855 31.4907V32.6905H25.0526V31.4907C25.0526 28.4085 23.4707 25.5825 20.8209 23.9315C20.5005 23.7319 20.292 23.3922 20.2631 23.0228L19.3991 11.9448C20.0455 11.5636 20.4808 10.8682 20.4808 10.0728V7.81817C20.4808 6.61498 19.4883 5.63623 18.2684 5.63623H13.6968C12.4769 5.63623 11.4846 6.61498 11.4846 7.81817V10.0727C11.4846 10.868 11.9197 11.5634 12.5662 11.9447L11.7021 23.0228C11.6733 23.3922 11.4647 23.7319 11.1442 23.9315C8.49456 25.5826 6.91265 28.4085 6.91265 31.4907V32.6905H2.2676C1.0477 32.6908 0.0553589 33.6694 0.0553589 34.8727V46.1454C0.0553589 47.3486 1.0477 48.3273 2.2676 48.3273H2.34117V50.7269H2.2676C1.0477 50.7271 0.0553589 51.7057 0.0553589 52.909V64.1818C0.0553589 65.385 1.0477 66.3637 2.2676 66.3637H70.8431C72.063 66.3637 73.0554 65.385 73.0554 64.1818V52.909C73.0554 51.7058 72.063 50.7271 70.8431 50.7271H70.7695V48.3274L70.8431 48.3273ZM54.7686 7.81817C54.7686 7.77809 54.8017 7.74561 54.8423 7.74561H59.4139C59.4545 7.74561 59.4875 7.77809 59.4875 7.81817V10.0727C59.4875 10.1127 59.4545 10.1452 59.4139 10.1452H54.8423C54.8017 10.1452 54.7686 10.1127 54.7686 10.0727V7.81817ZM59.0503 20.2909H55.2057L55.8325 12.2547H58.4236L59.0503 20.2909ZM34.196 7.81817C34.196 7.77809 34.2289 7.74561 34.2695 7.74561H38.8412C38.8818 7.74561 38.9147 7.77809 38.9147 7.81817V10.0727C38.9147 10.1127 38.8818 10.1452 38.8412 10.1452H34.2695C34.2289 10.1452 34.196 10.1127 34.196 10.0727V7.81817ZM38.4777 20.2909H34.633L35.2598 12.2547H37.851L38.4777 20.2909ZM29.6239 31.4908H29.6242C29.6242 29.1364 30.8336 26.9772 32.8593 25.7149C33.7483 25.1612 34.327 24.2152 34.4073 23.1845L34.4684 22.4H38.6421L38.7033 23.1844C38.7836 24.215 39.3623 25.161 40.2511 25.7148C42.2769 26.9771 43.4862 29.1362 43.4862 31.4907V32.6905H29.6239V31.4908ZM13.6232 7.81817C13.6232 7.77809 13.6562 7.74561 13.6968 7.74561H18.2684C18.3091 7.74561 18.3421 7.77809 18.3421 7.81817V10.0727C18.3421 10.1127 18.3091 10.1452 18.2684 10.1452H13.6968C13.6562 10.1452 13.6232 10.1127 13.6232 10.0727V7.81817ZM17.905 20.2909H14.0604L14.6872 12.2547H17.2782L17.905 20.2909ZM9.05161 31.4908C9.05161 29.1364 10.261 26.9772 12.2867 25.7149C13.1755 25.1612 13.7543 24.2152 13.8347 23.1845L13.8958 22.4H18.0695L18.1307 23.1845C18.2111 24.2152 18.7898 25.161 19.6785 25.7149C21.7043 26.9772 22.9138 29.1364 22.9138 31.4908V32.6907H9.05161V31.4908ZM70.8431 52.8364C70.8838 52.8364 70.9167 52.8689 70.9167 52.909V64.1818C70.9167 64.2219 70.8838 64.2544 70.8431 64.2544H2.2676C2.22697 64.2544 2.19403 64.2219 2.19403 64.1818V52.909C2.19403 52.8689 2.22697 52.8364 2.2676 52.8364H10.2682C10.8588 52.8364 11.3376 52.3642 11.3376 51.7818C11.3376 51.1993 10.8588 50.7271 10.2682 50.7271H9.05147V48.3274H22.9138V50.7271H14.8399C14.2493 50.7271 13.7705 51.1993 13.7705 51.7818C13.7705 52.3642 14.2493 52.8364 14.8399 52.8364H70.8431ZM4.47984 50.7268V48.3272H6.9128V50.7268H4.47984ZM25.0526 50.7271V48.3274H27.4855V50.7271H25.0526ZM29.6242 50.7271V48.3274H43.4865V50.7271H29.6242ZM45.6252 50.7271V48.3274H48.0581V50.7271H45.6252ZM50.1968 50.7271V48.3274H64.0591V50.7271H50.1968ZM66.1979 50.7271V48.3274H68.6309V50.7271H66.1979ZM2.2676 46.2178C2.22697 46.2178 2.19403 46.1853 2.19403 46.1452V34.8726C2.19403 34.8325 2.22697 34.8 2.2676 34.8H58.2709C58.8614 34.8 59.3402 34.3278 59.3402 33.7453C59.3402 33.1629 58.8614 32.6907 58.2709 32.6907H50.1969V31.4908C50.1969 29.1364 51.4063 26.9772 53.432 25.7149C54.3209 25.1612 54.8996 24.2152 54.98 23.1845L55.0412 22.4H59.2149L59.276 23.1845C59.3564 24.2152 59.9352 25.1612 60.824 25.7149C62.8498 26.9772 64.0591 29.1364 64.0591 31.4908V32.6907H62.8423C62.2518 32.6907 61.773 33.1629 61.773 33.7453C61.773 34.3278 62.2518 34.8 62.8423 34.8H70.843C70.8836 34.8 70.9165 34.8325 70.9165 34.8726V46.1452C70.9165 46.1853 70.8836 46.2178 70.843 46.2178H2.2676Z" fill="black"/>
<path d="M5.70785 39.4541H5.69645C5.10589 39.4541 4.63281 39.9263 4.63281 40.5088C4.63281 41.0913 5.11715 41.5635 5.70785 41.5635C6.29841 41.5635 6.77719 41.0913 6.77719 40.5088C6.77719 39.9265 6.29841 39.4541 5.70785 39.4541Z" fill="black"/>
<path d="M67.4259 39.4541H67.4145C66.8239 39.4541 66.3508 39.9263 66.3508 40.5088C66.3508 41.0913 66.8353 41.5635 67.4259 41.5635C68.0164 41.5635 68.4952 41.0913 68.4952 40.5088C68.4952 39.9265 68.0164 39.4541 67.4259 39.4541Z" fill="black"/>
<path d="M67.4259 57.4907H67.4145C66.8239 57.4907 66.3508 57.9629 66.3508 58.5454C66.3508 59.1279 66.8353 59.6001 67.4259 59.6001C68.0164 59.6001 68.4952 59.1279 68.4952 58.5454C68.4952 57.9628 68.0164 57.4907 67.4259 57.4907Z" fill="black"/>
<path d="M5.70785 57.4907H5.69645C5.10589 57.4907 4.63281 57.9629 4.63281 58.5454C4.63281 59.1279 5.11729 59.6001 5.70785 59.6001C6.29841 59.6001 6.77719 59.1279 6.77719 58.5454C6.77719 57.9628 6.29841 57.4907 5.70785 57.4907Z" fill="black"/>
</g>
<defs>
<clipPath id="clip0_2150_447">
<rect width="73" height="72" fill="white" transform="translate(0.0553589)"/>
</clipPath>
</defs>
</svg>
