<svg width="64" height="64" viewBox="0 0 64 64" fill="none" xmlns="http://www.w3.org/2000/svg">
<g clip-path="url(#clip0_2150_410)">
<path d="M54.6762 8.57449C54.546 3.8245 50.6382 0 45.8573 0H43.3377C39.8643 0 37.0384 2.82583 37.0384 6.29921V7.55906H17.5251L17.5257 3.79439C17.5259 1.70217 15.8237 0 13.7313 0C11.639 0 9.93696 1.70217 9.93696 3.79439L9.86993 13.595C9.86237 14.2904 10.4065 14.8509 11.1159 14.8687C11.8253 14.8864 12.3862 14.3012 12.3896 13.6239L12.4576 7.55906H15.005L15.3962 42.5827H12.0667L12.2636 24.9613C12.2704 24.3719 11.8194 23.7023 11.0176 23.6876C10.216 23.6728 9.75881 24.3597 9.74395 24.9335L9.3219 62.7263C9.32177 63.4351 9.88681 64 10.5817 64H16.881C17.5921 64 18.1652 63.4351 18.1408 62.7263C18.1408 62.7263 17.7628 27.5243 17.7628 27.4646C17.7628 17.878 25.5622 10.0787 35.1487 10.0787H37.2551C37.7752 11.5451 39.1755 12.5984 40.818 12.5984H42.2047C42.79 15.4702 45.335 17.6378 48.3771 17.6378C51.8505 17.6378 54.6764 14.812 54.6764 11.3386C54.6762 11.3386 54.68 8.65537 54.6762 8.57449ZM12.4566 5.03937V3.79439C12.4566 3.09153 13.0285 2.51969 13.7313 2.51969C14.4342 2.51969 15.0061 3.09153 15.0061 3.79439V5.03937H12.4566ZM11.8554 61.4803L12.0385 45.1024H15.4243L15.6073 61.4803H11.8554ZM17.6418 18.0026L17.5533 10.0787H25.4668C22.1679 11.9232 19.4455 14.6784 17.6418 18.0026ZM43.3377 2.51969H45.8573C47.9139 2.51969 49.7433 3.5103 50.8937 5.03937H39.7748C40.295 3.57304 41.6953 2.51969 43.3377 2.51969ZM39.5581 8.8189V7.55906H50.8967C51.5914 7.55906 52.1565 8.12422 52.1565 8.8189V10.0787H40.818C40.1233 10.0787 39.5581 9.51357 39.5581 8.8189ZM48.377 15.1181C46.7347 15.1181 45.3343 14.0648 44.8142 12.5984H51.9399C51.4198 14.0648 50.0195 15.1181 48.377 15.1181ZM12.3265 19.2781C12.3265 19.9739 11.7625 20.538 11.0667 20.538C10.3708 20.538 9.80681 19.9739 9.80681 19.2781C9.80681 18.5823 10.3708 18.0183 11.0667 18.0183C11.7625 18.0183 12.3265 18.5823 12.3265 19.2781Z" fill="black"/>
</g>
<defs>
<clipPath id="clip0_2150_410">
<rect width="64" height="64" fill="white"/>
</clipPath>
</defs>
</svg>
