<svg width="73" height="73" viewBox="0 0 73 73" fill="none" xmlns="http://www.w3.org/2000/svg">
<g opacity="0.72" clip-path="url(#clip0_2150_438)">
<path d="M72.4574 41.7058L66.6506 36.6923L69.5653 28.7863C69.7082 28.3986 69.6735 27.9678 69.4701 27.6079L64.0689 18.0517C63.895 17.7442 63.6118 17.5134 63.2754 17.405L52.9614 14.0857C52.6909 13.9986 52.4001 13.9955 52.1277 14.077L39.4426 17.8706C39.1227 17.9664 38.8472 18.1727 38.6655 18.4531L32.1733 28.4675L29.1166 26.6616C28.5907 26.3507 27.9241 26.4154 27.4673 26.8211L18.0121 35.2215L12.1037 34.7093C11.7344 34.678 11.3675 34.7926 11.0828 35.0294L6.09394 39.1809C5.94572 39.3042 5.82451 39.4567 5.73774 39.6289L1.09515 48.839C0.88899 49.248 0.894896 49.7319 1.11118 50.1357L5.83365 58.9566C6.07833 59.4138 6.55477 59.6991 7.0734 59.6991H48.5939C49.3706 59.6991 50.0002 59.0694 50.0002 58.2928C50.0002 57.5163 49.3706 56.8866 48.5939 56.8866H45.8543L56.7087 48.4789L70.1322 44.6356V52.4403L65.4452 56.8864H61.2254C60.4487 56.8864 59.8192 57.5162 59.8192 58.2927C59.8192 59.0692 60.4487 59.6989 61.2254 59.6989H66.006C66.3661 59.6989 66.7125 59.5609 66.9737 59.3129L72.5062 54.0649C72.7861 53.7994 72.9447 53.4306 72.9447 53.0447V42.7704C72.9447 42.3614 72.7668 41.973 72.4574 41.7058ZM53.937 17.3542L61.8909 19.9142L65.6391 26.5458L53.937 25.0357V17.3542ZM52.7208 27.7146L66.3162 29.4689L64.3768 34.7292L63.2119 33.7233C62.9565 33.5028 62.6303 33.3814 62.2929 33.3814H49.725C49.3818 33.3814 49.0505 33.5068 48.7935 33.7341L47.4359 34.9345L43.6952 31.4305L52.7208 27.7146ZM45.3196 36.8058L39.4411 42.0033L41.8571 33.5624L45.3196 36.8058ZM40.7442 20.417L51.1245 17.3127V25.3305L40.8604 29.5563H34.8194L40.7442 20.417ZM12.4374 37.5613L18.0604 38.0487L23.3386 44.2669L14.5745 46.5671L9.0181 40.4067L12.4374 37.5613ZM3.93563 49.4524L7.32512 42.7287L12.3136 48.2594L7.22752 55.6011L3.93563 49.4524ZM21.6985 56.8866H9.75835L14.9636 49.3729L23.9661 47.0101L21.6985 56.8866ZM20.5952 36.6888L28.5689 29.6046L32.9162 32.1731C33.1329 32.3011 33.3798 32.3688 33.6316 32.3688H39.2734L35.8036 44.4905L24.2711 41.0192L20.5952 36.6888ZM24.5842 56.8866L27.2271 45.3746C27.267 45.2007 27.2714 45.0236 27.2456 44.8516L35.6975 47.3957L39.3406 56.8867L24.5842 56.8866ZM42.1031 56.2346L38.4259 46.655L49.2973 37.043L54.2794 46.8032L42.1031 56.2346ZM56.7876 45.531L52.0216 36.1942H61.7698L68.6503 42.1347L56.7876 45.531Z" fill="black"/>
<path d="M54.9095 59.6995C55.6862 59.6995 56.3158 59.0699 56.3158 58.2932C56.3158 57.5166 55.6862 56.887 54.9095 56.887C54.1329 56.887 53.5033 57.5166 53.5033 58.2932C53.5033 59.0699 54.1329 59.6995 54.9095 59.6995Z" fill="black"/>
</g>
<defs>
<clipPath id="clip0_2150_438">
<rect width="72" height="72" fill="white" transform="translate(0.944702 0.858887)"/>
</clipPath>
</defs>
</svg>
