<svg width="73" height="73" viewBox="0 0 73 73" fill="none" xmlns="http://www.w3.org/2000/svg">
<g id="clarity:truck-solid" clip-path="url(#clip0_2150_287)">
<path id="Vector" d="M60.5 24.277H52.5V14.277C52.5 13.7465 52.2893 13.2378 51.9142 12.8628C51.5391 12.4877 51.0304 12.277 50.5 12.277H6.5C5.96957 12.277 5.46086 12.4877 5.08579 12.8628C4.71071 13.2378 4.5 13.7465 4.5 14.277V50.277C4.5 50.8074 4.71071 51.3161 5.08579 51.6912C5.46086 52.0663 5.96957 52.277 6.5 52.277H8.5V16.277H48.5V43.257C47.2751 43.6469 46.1492 44.2975 45.1997 45.1641C44.2503 46.0307 43.4998 47.0927 43 48.277H29.36C28.6717 46.6352 27.5119 45.2344 26.0273 44.2519C24.5428 43.2693 22.8002 42.7491 21.02 42.757C19.3286 42.7943 17.6841 43.3206 16.2853 44.2724C14.8865 45.2241 13.7933 46.5606 13.1377 48.1202C12.4821 49.6799 12.2921 51.396 12.5908 53.0613C12.8895 54.7266 13.664 56.2698 14.8208 57.5044C15.9776 58.739 17.4671 59.6122 19.1095 60.0185C20.7518 60.4248 22.4767 60.3468 24.0757 59.794C25.6747 59.2411 27.0794 58.2371 28.12 56.9031C29.1607 55.5692 29.7928 53.9624 29.94 52.277H42.5C42.7334 54.4773 43.7728 56.5135 45.4178 57.9932C47.0629 59.473 49.1973 60.2917 51.41 60.2917C53.6227 60.2917 55.7571 59.473 57.4022 57.9932C59.0472 56.5135 60.0866 54.4773 60.32 52.277H68.5V32.277C68.5 30.1552 67.6571 28.1204 66.1569 26.6201C64.6566 25.1198 62.6217 24.277 60.5 24.277ZM21.02 56.277C20.3703 56.3192 19.7189 56.2276 19.1059 56.008C18.493 55.7884 17.9317 55.4453 17.4566 55.0001C16.9816 54.5549 16.6029 54.017 16.3441 53.4196C16.0852 52.8222 15.9516 52.178 15.9516 51.527C15.9516 50.8759 16.0852 50.2318 16.3441 49.6344C16.6029 49.037 16.9816 48.499 17.4566 48.0538C17.9317 47.6086 18.493 47.2656 19.1059 47.046C19.7189 46.8263 20.3703 46.7348 21.02 46.777C21.6697 46.7348 22.3211 46.8263 22.9341 47.046C23.547 47.2656 24.1083 47.6086 24.5834 48.0538C25.0584 48.499 25.4371 49.037 25.6959 49.6344C25.9548 50.2318 26.0884 50.8759 26.0884 51.527C26.0884 52.178 25.9548 52.8222 25.6959 53.4196C25.4371 54.017 25.0584 54.5549 24.5834 55.0001C24.1083 55.4453 23.547 55.7884 22.9341 56.008C22.3211 56.2276 21.6697 56.3192 21.02 56.277ZM51.36 56.277C50.4294 56.23 49.533 55.9109 48.782 55.3592C48.0311 54.8076 47.4585 54.0477 47.1354 53.1737C46.8123 52.2997 46.7528 51.3501 46.9643 50.4426C47.1758 49.5351 47.649 48.7097 48.3252 48.0686C49.0014 47.4275 49.851 46.999 50.7684 46.8362C51.6859 46.6734 52.631 46.7835 53.4865 47.1528C54.342 47.5221 55.0703 48.1344 55.5811 48.9137C56.0919 49.6931 56.3627 50.6052 56.36 51.537C56.3419 52.1779 56.1976 52.809 55.9355 53.3941C55.6733 53.9793 55.2985 54.5071 54.8323 54.9473C54.3661 55.3875 53.8177 55.7315 53.2184 55.9596C52.6192 56.1878 51.9809 56.2956 51.34 56.277H51.36ZM64.5 34.277H52.5V28.277H60.5C61.5609 28.277 62.5783 28.6984 63.3284 29.4486C64.0786 30.1987 64.5 31.2161 64.5 32.277V34.277Z" fill="white"/>
</g>
<defs>
<clipPath id="clip0_2150_287">
<rect width="72" height="72" fill="white" transform="translate(0.5 0.276978)"/>
</clipPath>
</defs>
</svg>
