<svg width="498" height="330" viewBox="0 0 498 330" fill="none" xmlns="http://www.w3.org/2000/svg">
<path d="M238.021 71.1594H164.44L140.203 181.099C138.132 189.445 136.329 196.606 134.693 202.633C133.056 208.659 131.441 213.753 129.928 217.913C128.61 221.638 127.015 225.208 125.164 228.579C123.647 231.289 121.927 233.821 120.026 236.144C116.355 240.855 111.93 244.601 107.024 247.15C102.119 249.701 96.8356 251.001 91.5011 250.971C83.681 251.07 75.9849 248.586 69.232 243.784C63.0072 239.038 57.5111 233.005 52.9911 225.957C52.4393 225.135 51.7575 224.455 50.9863 223.959C50.2152 223.463 49.37 223.16 48.5007 223.068C47.6317 222.977 46.7564 223.098 45.9264 223.425C45.0966 223.753 44.3291 224.279 43.6691 224.974L2.98402 268.194C1.7626 269.486 0.980118 271.288 0.788691 273.245C0.597263 275.203 1.01057 277.177 1.94826 278.784C11.0445 294.264 23.1415 306.773 37.1645 315.194C53.3528 324.98 71.2108 329.973 89.2846 329.768C105.205 330.135 121.054 327.08 136.102 320.741C149.037 315.123 160.838 306.209 170.717 294.594C180.017 283.142 187.714 269.912 193.504 255.434C200.597 237.079 206.204 217.925 210.242 198.245L238.021 71.1594Z" fill="#22325D"/>
<path d="M483.271 71.1605H254.842L199.988 319.683C199.718 320.858 199.673 322.091 199.857 323.29C200.042 324.489 200.45 325.619 201.051 326.594C201.652 327.569 202.429 328.361 203.323 328.913C204.216 329.464 205.201 329.757 206.202 329.769H268.08C269.497 329.752 270.872 329.171 271.994 328.115C273.116 327.059 273.925 325.587 274.295 323.92L293.789 235.666C294.157 233.997 294.963 232.52 296.086 231.46C297.208 230.4 298.583 229.814 300.002 229.791H324.073C325.339 229.792 326.576 230.241 327.636 231.083C328.693 231.924 329.53 233.122 330.04 234.532L362.646 325.03C363.155 326.439 363.991 327.638 365.05 328.479C366.11 329.321 367.347 329.769 368.613 329.769H436.973C438.065 329.772 439.138 329.442 440.097 328.804C441.055 328.169 441.868 327.251 442.458 326.133C443.049 325.016 443.398 323.736 443.475 322.409C443.552 321.084 443.352 319.757 442.897 318.549L408.696 226.891C408.314 225.864 408.115 224.75 408.113 223.623C408.113 222.495 408.31 221.381 408.69 220.353C409.07 219.325 409.626 218.407 410.319 217.66C411.013 216.914 411.83 216.356 412.715 216.023C437.007 206.811 455.099 192.783 466.988 173.939C480.097 153.27 487.018 127.776 486.607 101.671C486.662 91.3371 485.538 81.0439 483.271 71.0847M394.403 145.294C384.376 153.464 370.891 157.549 353.945 157.549H329.583C328.645 157.55 327.717 157.795 326.864 158.269C326.01 158.743 325.248 159.435 324.633 160.297L308.288 183.42C308.098 183.696 307.833 183.885 307.542 183.954C307.251 184.024 306.949 183.971 306.687 183.804C306.422 183.636 306.213 183.364 306.094 183.033C305.977 182.702 305.953 182.331 306.029 181.982L317.755 127.87L327.533 84.2221C327.903 82.5557 328.712 81.0821 329.834 80.0262C330.954 78.9701 332.329 78.3891 333.748 78.3721H369.233C385.156 78.3721 396.204 82.146 402.377 89.6939C406.914 95.7433 409.389 103.668 409.296 111.858C409.42 118.555 408.097 125.174 405.463 131.054C402.826 136.934 398.97 141.87 394.277 145.37" fill="#E6293F"/>
<path d="M245.127 -0.0494876H185.156C183.736 -0.0267296 182.361 0.559275 181.24 1.61959C180.118 2.67991 179.311 4.15667 178.942 5.82572L178.672 7.03606H251.674C251.504 5.07479 250.738 3.26144 249.527 1.95091C248.317 0.640386 246.748 -0.0729559 245.127 -0.0494876Z" fill="#22325D"/>
<path d="M250.43 14.4739H176.953L175.461 21.2568H248.938L250.43 14.4739Z" fill="#22325D"/>
<path d="M241.129 56.9875H167.589L166.098 63.7705H239.637L241.129 56.9875Z" fill="#22325D"/>
<path d="M247.323 28.647H173.825L172.333 35.4299H245.832L247.323 28.647Z" fill="#22325D"/>
<path d="M244.217 42.8179H170.718L169.206 49.6008H242.745L244.217 42.8179Z" fill="#22325D"/>
<path d="M471.94 42.8179H261.077L259.587 49.6008H475.691C474.51 47.2811 473.246 45.0118 471.877 42.8179" fill="#E6293F"/>
<path d="M478.963 56.9875H257.97L256.5 63.7705H481.324C480.6 61.4759 479.834 59.2064 478.963 56.9875Z" fill="#E6293F"/>
<path d="M465.831 34.3962C464.193 32.4042 462.454 30.4879 460.63 28.647H264.206L262.716 35.4299H466.66L465.831 34.3962Z" fill="#E6293F"/>
<path d="M441.427 14.4739H267.416L265.926 21.2568H452.054C448.633 18.7252 445.083 16.4597 441.427 14.4739Z" fill="#E6293F"/>
<path d="M372.673 -0.0500488H275.537C274.117 -0.0272908 272.742 0.558714 271.62 1.61903C270.5 2.67935 269.693 4.1561 269.323 5.82515L269.054 7.03549H424.419C410.111 2.3118 392.862 -0.0500488 372.673 -0.0500488Z" fill="#E6293F"/>
<path fill-rule="evenodd" clip-rule="evenodd" d="M114.475 32.9323C4.68302 77.3366 335.593 214.105 498.022 261.938C390.84 244.011 46.5283 114.051 50.5677 45.0861C51.0028 37.7485 58.7089 34.2434 68.7351 32.7306C84.7689 30.209 106.748 32.9323 114.309 32.9323" fill="#22325D"/>
</svg>
