<svg width="64" height="64" viewBox="0 0 64 64" fill="none" xmlns="http://www.w3.org/2000/svg">
<path d="M58.0761 54.8114C58.3571 53.508 59 49.3901 59 39C59 37.2398 58.5875 33.821 57.7743 28.8389C57.7532 28.7093 57.7067 28.5851 57.6376 28.4735C57.5684 28.3618 57.478 28.2649 57.3713 28.1882C57.2647 28.1115 57.1441 28.0566 57.0162 28.0265C56.8884 27.9965 56.7559 27.9919 56.6263 28.0131C56.4967 28.0342 56.3725 28.0807 56.2609 28.1499C56.1492 28.219 56.0523 28.3095 55.9756 28.4161C55.8989 28.5227 55.844 28.6433 55.8139 28.7712C55.7839 28.899 55.7793 29.0315 55.8005 29.1611C56.5852 33.9684 57.0005 37.3706 57.0005 39C57.0005 51.4931 56.0581 54.6625 56.0518 54.6838C56.0037 54.8282 55.9891 54.9818 56.0094 55.1327C56.0296 55.2837 56.084 55.428 56.1685 55.5548L57.9766 58.2673C57.8061 59.1798 56.7462 59.5436 55.87 59.1058C55.6642 59.0029 55.4293 58.9741 55.2048 59.0243C55.0712 59.0539 41.7717 62 32 62C22.2282 62 8.92872 59.0539 8.7956 59.024C8.57112 58.9738 8.33619 59.0026 8.13047 59.1055C7.25185 59.5445 6.19372 59.1766 6.02385 58.267C9.70985 52.297 6.99997 60.4768 6.99997 39C6.99997 37.3706 7.41472 33.9684 8.19997 29.1611C8.22113 29.0315 8.21656 28.899 8.18651 28.7712C8.15646 28.6433 8.10152 28.5227 8.02484 28.4161C7.94815 28.3095 7.85122 28.219 7.73958 28.1499C7.62794 28.0807 7.50377 28.0342 7.37416 28.0131C7.24455 27.9919 7.11205 27.9965 6.98421 28.0265C6.85637 28.0566 6.7357 28.1115 6.6291 28.1882C6.52249 28.2649 6.43203 28.3618 6.36288 28.4735C6.29374 28.5851 6.24726 28.7093 6.2261 28.8389C5.41247 33.821 4.99997 37.2398 4.99997 39C4.99997 49.3901 5.64285 53.508 5.92385 54.8114L4.16797 57.4454C3.74672 58.0769 4.07572 59.8811 5.52985 60.7801C5.99835 61.0656 6.5268 61.2383 7.07347 61.2845C7.62015 61.3307 8.17008 61.2492 8.67985 61.0464C10.8272 61.5118 22.7421 64 32 64C41.2579 64 53.1727 61.5118 55.3197 61.0464C55.8295 61.2491 56.3794 61.3306 56.9261 61.2844C57.4728 61.2381 58.0012 61.0655 58.4697 60.7801C59.924 59.8811 60.2527 58.0769 59.8316 57.4454L58.0761 54.8114Z" fill="black"/>
<path d="M57 16H6.99998C4.39998 16 3.04998 19.0854 4.76573 21C3.05098 22.9136 4.39823 26 6.99998 26H57C59.6 26 60.95 22.9146 59.2342 21C60.949 19.0864 59.6017 16 57 16ZM23 22H57C57.2652 22 57.5196 22.1054 57.7071 22.2929C57.8946 22.4804 58 22.7348 58 23C58 23.2652 57.8946 23.5196 57.7071 23.7071C57.5196 23.8946 57.2652 24 57 24H6.99998C6.73477 24 6.48041 23.8946 6.29288 23.7071C6.10534 23.5196 5.99998 23.2652 5.99998 23C5.99998 22.7348 6.10534 22.4804 6.29288 22.2929C6.48041 22.1054 6.73477 22 6.99998 22H15C15.2652 22 15.5196 21.8946 15.7071 21.7071C15.8946 21.5196 16 21.2652 16 21C16 20.7348 15.8946 20.4804 15.7071 20.2929C15.5196 20.1054 15.2652 20 15 20H6.99998C6.73477 20 6.48041 19.8946 6.29288 19.7071C6.10534 19.5196 5.99998 19.2652 5.99998 19C5.99998 18.7348 6.10534 18.4804 6.29288 18.2929C6.48041 18.1054 6.73477 18 6.99998 18H57C57.2652 18 57.5196 18.1054 57.7071 18.2929C57.8946 18.4804 58 18.7348 58 19C58 19.2652 57.8946 19.5196 57.7071 19.7071C57.5196 19.8946 57.2652 20 57 20H23C22.7348 20 22.4804 20.1054 22.2929 20.2929C22.1053 20.4804 22 20.7348 22 21C22 21.2652 22.1053 21.5196 22.2929 21.7071C22.4804 21.8946 22.7348 22 23 22Z" fill="black"/>
<path d="M40 50.9571C40.2652 50.9571 40.5195 50.8517 40.7071 50.6642C40.8946 50.4766 41 50.2223 41 49.9571C41 49.6918 40.8946 49.4375 40.7071 49.25C40.5195 49.0624 40.2652 48.9571 40 48.9571H37.8147C37.5984 47.7438 37.0146 46.6264 36.1422 45.7559C35.2699 44.8854 34.1511 44.304 32.9375 44.0903V41.6962C34.4098 42.1828 35.9037 42.1087 37.2762 41.3729C40.0637 39.8786 41.844 35.7866 41.9185 35.6131C41.9777 35.475 42.0051 35.3254 41.9985 35.1753C41.992 35.0252 41.9518 34.8785 41.8808 34.7461C41.8098 34.6137 41.7098 34.499 41.5884 34.4106C41.467 34.3221 41.3272 34.2621 41.1795 34.2351C40.9938 34.2009 36.6 33.4202 33.8131 34.9143C33.0678 35.3087 32.4295 35.8783 31.9532 36.5741C31.4769 35.8782 30.8386 35.3086 30.0932 34.9143C27.3066 33.4202 22.9127 34.2009 22.7268 34.2351C22.5791 34.2621 22.4393 34.3221 22.3179 34.4106C22.1965 34.4991 22.0966 34.6138 22.0256 34.7462C21.9546 34.8786 21.9144 35.0252 21.9079 35.1753C21.9013 35.3254 21.9287 35.475 21.988 35.6131C22.0623 35.7866 23.8432 39.8786 26.6301 41.3729C28.0073 42.1114 29.4926 42.1762 30.9375 41.7066V44.0793C29.7113 44.2824 28.5782 44.8605 27.694 45.734C26.8098 46.6075 26.218 47.7335 26 48.9571H24C23.7347 48.9571 23.4804 49.0624 23.2929 49.25C23.1053 49.4375 23 49.6918 23 49.9571C23 50.2223 23.1053 50.4766 23.2929 50.6642C23.4804 50.8517 23.7347 50.9571 24 50.9571H40ZM39.4625 36.0434C37.8826 38.8559 35.8392 40.9653 32.9797 39.5623C32.9748 39.5033 32.9688 39.4413 32.9615 39.3748C33.45 36.2867 36.3438 35.8101 39.4625 36.0434ZM30.9282 39.5624C28.0657 40.9656 26.0272 38.8593 24.4455 36.0433C27.565 35.8102 30.458 36.2868 30.9466 39.3752C30.9391 39.4413 30.9331 39.5036 30.9282 39.5624ZM28.0462 48.9571C29.1087 45.0291 34.7056 45.0256 35.7686 48.9571H28.0462Z" fill="black"/>
<path d="M36.5 56C40.0804 56 43.5142 54.5777 46.0459 52.0459C48.5777 49.5142 50 46.0804 50 42.5C50 38.9196 48.5777 35.4858 46.0459 32.9541C43.5142 30.4223 40.0804 29 36.5 29H27.5C23.9196 29 20.4858 30.4223 17.9541 32.9541C15.4223 35.4858 14 38.9196 14 42.5C14 46.0804 15.4223 49.5142 17.9541 52.0459C20.4858 54.5777 23.9196 56 27.5 56H36.5ZM16 42.5C16.0033 39.451 17.216 36.5279 19.3719 34.3719C21.5279 32.216 24.451 31.0033 27.5 31H36.5C39.55 31 42.4751 32.2116 44.6317 34.3683C46.7884 36.5249 48 39.45 48 42.5C48 45.55 46.7884 48.4751 44.6317 50.6317C42.4751 52.7884 39.55 54 36.5 54H27.5C24.451 53.9967 21.5279 52.784 19.3719 50.6281C17.216 48.4721 16.0033 45.549 16 42.5Z" fill="black"/>
<path d="M15.216 13.6784C22.1689 6.1475 28.1295 2 32 2C35.8705 2 41.8311 6.1475 48.784 13.6784C48.9639 13.8732 49.2139 13.9887 49.4789 13.9992C49.7439 14.0098 50.0022 13.9147 50.1971 13.7347C50.392 13.5548 50.5074 13.3049 50.518 13.0399C50.5285 12.7749 50.4334 12.5165 50.2535 12.3216C45.0639 6.7 37.6845 0 32 0C26.3155 0 18.9361 6.7 13.7465 12.3216C13.5666 12.5165 13.4714 12.7749 13.482 13.0399C13.4926 13.3049 13.608 13.5548 13.8029 13.7347C13.9977 13.9147 14.2561 14.0098 14.5211 13.9992C14.7861 13.9887 15.0361 13.8732 15.216 13.6784Z" fill="black"/>
<path d="M19 22C19.5523 22 20 21.5523 20 21C20 20.4477 19.5523 20 19 20C18.4477 20 18 20.4477 18 21C18 21.5523 18.4477 22 19 22Z" fill="black"/>
<path d="M27 10C27.5523 10 28 9.55228 28 9C28 8.44772 27.5523 8 27 8C26.4477 8 26 8.44772 26 9C26 9.55228 26.4477 10 27 10Z" fill="black"/>
<path d="M30 6C30.5523 6 31 5.55228 31 5C31 4.44772 30.5523 4 30 4C29.4477 4 29 4.44772 29 5C29 5.55228 29.4477 6 30 6Z" fill="black"/>
<path d="M32 9C32.5523 9 33 8.55228 33 8C33 7.44772 32.5523 7 32 7C31.4477 7 31 7.44772 31 8C31 8.55228 31.4477 9 32 9Z" fill="black"/>
<path d="M35 7C35.5523 7 36 6.55228 36 6C36 5.44772 35.5523 5 35 5C34.4477 5 34 5.44772 34 6C34 6.55228 34.4477 7 35 7Z" fill="black"/>
<path d="M37 11C37.5523 11 38 10.5523 38 10C38 9.44772 37.5523 9 37 9C36.4477 9 36 9.44772 36 10C36 10.5523 36.4477 11 37 11Z" fill="black"/>
<path d="M41 14C41.5523 14 42 13.5523 42 13C42 12.4477 41.5523 12 41 12C40.4477 12 40 12.4477 40 13C40 13.5523 40.4477 14 41 14Z" fill="black"/>
<path d="M34 14C34.5523 14 35 13.5523 35 13C35 12.4477 34.5523 12 34 12C33.4477 12 33 12.4477 33 13C33 13.5523 33.4477 14 34 14Z" fill="black"/>
<path d="M29 14C29.5523 14 30 13.5523 30 13C30 12.4477 29.5523 12 29 12C28.4477 12 28 12.4477 28 13C28 13.5523 28.4477 14 29 14Z" fill="black"/>
<path d="M23 14C23.5523 14 24 13.5523 24 13C24 12.4477 23.5523 12 23 12C22.4477 12 22 12.4477 22 13C22 13.5523 22.4477 14 23 14Z" fill="black"/>
</svg>
