<svg width="65" height="66" viewBox="0 0 65 66" fill="none" xmlns="http://www.w3.org/2000/svg">
<path fill-rule="evenodd" clip-rule="evenodd" d="M33.1988 14.805C32.9658 14.4587 32.5798 14.2515 32.1658 14.2515C31.7528 14.2515 31.3668 14.4587 31.1338 14.805L28.8248 18.2429L24.8918 19.4108C24.4958 19.5287 24.1818 19.8374 24.0538 20.2365C23.9268 20.6357 24.0018 21.0734 24.2538 21.4055L26.7588 24.6982L26.6378 28.8572C26.6258 29.2766 26.8188 29.6758 27.1528 29.9226C27.4868 30.1683 27.9198 30.2313 28.3088 30.0901L32.1658 28.6876L36.0238 30.0901C36.4128 30.2313 36.8458 30.1683 37.1798 29.9226C37.5138 29.6758 37.7068 29.2766 37.6948 28.8572L37.5728 24.6982L40.0788 21.4055C40.3308 21.0734 40.4058 20.6357 40.2778 20.2365C40.1508 19.8374 39.8368 19.5287 39.4398 19.4108L35.5078 18.2429L33.1988 14.805ZM32.1658 17.7737L33.6948 20.0487C33.8578 20.2914 34.0988 20.4691 34.3768 20.5514L36.9798 21.3253L35.3218 23.5048C35.1448 23.7374 35.0528 24.0248 35.0608 24.3194L35.1418 27.0727L32.5878 26.1444C32.3148 26.0449 32.0178 26.0449 31.7448 26.1444L29.1908 27.0727L29.2718 24.3194C29.2798 24.0248 29.1878 23.7374 29.0108 23.5048L27.3528 21.3253L29.9558 20.5514C30.2338 20.4691 30.4748 20.2914 30.6378 20.0487L32.1658 17.7737Z" fill="black"/>
<path fill-rule="evenodd" clip-rule="evenodd" d="M48.2648 12.5059C48.2838 11.9575 47.9528 11.4578 47.4448 11.2689C46.7328 11.0048 46.2698 10.3061 46.2958 9.53724C46.3148 8.9888 45.9838 8.48912 45.4758 8.30021C42.2338 7.09771 36.0338 4.79732 33.6008 3.89443C32.6688 3.5481 31.6468 3.54708 30.7138 3.89036C28.2628 4.79224 21.9898 7.09974 18.7188 8.30326C18.2088 8.49013 17.8768 8.99083 17.8958 9.5413C17.9218 10.3122 17.4568 11.0119 16.7428 11.274C16.2328 11.4618 15.8998 11.9626 15.9188 12.513C16.0148 15.2897 16.1878 20.2886 16.3578 25.2358C16.6648 34.1276 23.1498 41.5437 31.8078 42.9036C31.9928 42.933 32.0918 42.933 32.0918 42.933C32.0918 42.933 32.1908 42.933 32.3758 42.9036C41.0338 41.5437 47.5188 34.1276 47.8258 25.2358C47.9958 20.2846 48.1688 15.2826 48.2648 12.5059ZM45.7388 13.226L45.3268 25.1464C45.0628 32.7869 39.5148 39.164 32.0918 40.3787C24.6688 39.164 19.1208 32.7869 18.8568 25.1464L18.4458 13.2341C19.4238 12.5953 20.1028 11.5736 20.3218 10.4137C20.3208 10.4137 31.5658 6.2781 31.5658 6.2781C31.9458 6.13794 32.3628 6.13794 32.7428 6.27911L43.8698 10.4076C44.0868 11.5654 44.7638 12.5861 45.7388 13.226Z" fill="black"/>
<path fill-rule="evenodd" clip-rule="evenodd" d="M52.2698 43.1865C52.2698 42.4461 51.9798 41.7352 51.4638 41.2121C50.9478 40.6881 50.2488 40.3936 49.5198 40.3936H14.6638C13.9348 40.3936 13.2358 40.6881 12.7198 41.2121C12.2038 41.7352 11.9138 42.4461 11.9138 43.1865V57.6947C11.9138 58.3965 12.4738 58.9643 13.1638 58.9643H51.0198C51.7098 58.9643 52.2698 58.3965 52.2698 57.6947V43.1865ZM49.7698 43.1865V56.4252H14.4138V43.1865C14.4138 43.1195 14.4408 43.0545 14.4878 43.0068C14.5348 42.96 14.5978 42.9326 14.6638 42.9326H49.5198C49.5858 42.9326 49.6488 42.96 49.6958 43.0068C49.7428 43.0545 49.7698 43.1195 49.7698 43.1865Z" fill="black"/>
<path fill-rule="evenodd" clip-rule="evenodd" d="M55.2578 59.7179C55.2578 58.8445 54.9168 58.0076 54.3088 57.3901C53.7008 56.7726 52.8758 56.4253 52.0158 56.4253C44.7148 56.4253 19.4688 56.4253 12.1678 56.4253C11.3078 56.4253 10.4828 56.7726 9.87478 57.3901C9.26678 58.0076 8.92578 58.8445 8.92578 59.7179C8.92578 60.5914 9.26678 61.4293 9.87478 62.0468C10.4828 62.6643 11.3078 63.0116 12.1678 63.0116H52.0158C52.8758 63.0116 53.7008 62.6643 54.3088 62.0468C54.9168 61.4293 55.2578 60.5914 55.2578 59.7179ZM52.7578 59.7179C52.7578 59.918 52.6798 60.111 52.5408 60.2522C52.4018 60.3933 52.2128 60.4726 52.0158 60.4726H12.1678C11.9708 60.4726 11.7818 60.3933 11.6428 60.2522C11.5038 60.111 11.4258 59.919 11.4258 59.719C11.4258 59.5189 11.5038 59.3269 11.6428 59.1858C11.7818 59.0436 11.9708 58.9644 12.1678 58.9644H52.0158C52.2128 58.9644 52.4018 59.0436 52.5408 59.1858C52.6798 59.3269 52.7578 59.5179 52.7578 59.7179Z" fill="black"/>
<path fill-rule="evenodd" clip-rule="evenodd" d="M26.1148 52.9531H38.0688C38.7588 52.9531 39.3188 52.3844 39.3188 51.6836C39.3188 50.9828 38.7588 50.4141 38.0688 50.4141H26.1148C25.4248 50.4141 24.8648 50.9828 24.8648 51.6836C24.8648 52.3844 25.4248 52.9531 26.1148 52.9531Z" fill="black"/>
<path fill-rule="evenodd" clip-rule="evenodd" d="M26.1148 48.9453H38.0688C38.7588 48.9453 39.3188 48.3755 39.3188 47.6758C39.3188 46.975 38.7588 46.4062 38.0688 46.4062H26.1148C25.4248 46.4062 24.8648 46.975 24.8648 47.6758C24.8648 48.3755 25.4248 48.9453 26.1148 48.9453Z" fill="black"/>
</svg>
