<svg width="21" height="20" viewBox="0 0 21 20" fill="none" xmlns="http://www.w3.org/2000/svg">
<g id="Instagram">
<path id="Vector" d="M14.251 2.03218C15.348 2.03533 16.3993 2.4561 17.175 3.20258C17.9508 3.94907 18.388 4.96062 18.3913 6.0163V13.9837C18.388 15.0394 17.9508 16.0509 17.175 16.7974C16.3993 17.5439 15.348 17.9647 14.251 17.9678H5.97123C4.87416 17.9647 3.82295 17.5439 3.0472 16.7974C2.27145 16.0509 1.83419 15.0394 1.83091 13.9837V6.0163C1.83419 4.96062 2.27145 3.94907 3.0472 3.20258C3.82295 2.4561 4.87416 2.03533 5.97123 2.03218H14.251ZM14.251 0.438782H5.97123C2.78326 0.438782 0.175049 2.9486 0.175049 6.0163V13.9837C0.175049 17.0514 2.78326 19.5612 5.97123 19.5612H14.251C17.4389 19.5612 20.0472 17.0514 20.0472 13.9837V6.0163C20.0472 2.9486 17.4389 0.438782 14.251 0.438782Z" fill="white"/>
<path id="Vector_2" d="M15.493 6.01646C15.2474 6.01646 15.0073 5.94637 14.803 5.81505C14.5988 5.68372 14.4396 5.49706 14.3456 5.27868C14.2516 5.06029 14.227 4.81999 14.2749 4.58815C14.3228 4.35631 14.4411 4.14336 14.6148 3.97621C14.7885 3.80907 15.0098 3.69524 15.2507 3.64912C15.4917 3.60301 15.7414 3.62668 15.9683 3.71714C16.1953 3.80759 16.3893 3.96078 16.5257 4.15732C16.6622 4.35386 16.735 4.58493 16.735 4.82131C16.7354 4.97836 16.7035 5.13392 16.6412 5.27908C16.5789 5.42423 16.4875 5.55612 16.3721 5.66717C16.2566 5.77821 16.1196 5.86623 15.9687 5.92618C15.8179 5.98612 15.6562 6.0168 15.493 6.01646ZM10.1112 6.81295C10.7662 6.81295 11.4066 6.99988 11.9513 7.35009C12.496 7.70031 12.9205 8.19808 13.1712 8.78047C13.4219 9.36286 13.4875 10.0037 13.3597 10.622C13.2319 11.2402 12.9164 11.8081 12.4532 12.2539C11.99 12.6996 11.3998 13.0032 10.7573 13.1261C10.1148 13.2491 9.44886 13.186 8.84365 12.9448C8.23843 12.7035 7.72114 12.295 7.35719 11.7709C6.99325 11.2468 6.79899 10.6305 6.79899 10.0002C6.79993 9.15514 7.14919 8.34498 7.77014 7.74746C8.39109 7.14994 9.233 6.81385 10.1112 6.81295ZM10.1112 5.21955C9.12857 5.21955 8.16806 5.49993 7.35107 6.02523C6.53408 6.55053 5.89732 7.29716 5.5213 8.1707C5.14528 9.04425 5.0469 10.0055 5.23859 10.9328C5.43028 11.8602 5.90344 12.712 6.59823 13.3806C7.29302 14.0491 8.17824 14.5045 9.14194 14.6889C10.1056 14.8734 11.1045 14.7787 12.0123 14.4169C12.9201 14.055 13.696 13.4423 14.2419 12.6561C14.7878 11.87 15.0792 10.9457 15.0792 10.0002C15.0792 8.73227 14.5558 7.5163 13.6241 6.61976C12.6924 5.72322 11.4288 5.21955 10.1112 5.21955Z" fill="white"/>
</g>
</svg>
