<svg width="63" height="63" viewBox="0 0 63 63" fill="none" xmlns="http://www.w3.org/2000/svg">
<g clip-path="url(#clip0_2150_107)">
<path d="M45.5202 62.655H9.09519C6.57644 62.655 4.44519 60.5238 4.44519 58.005V12.0863C4.44519 9.56753 6.57644 7.43628 9.09519 7.43628H15.6827C16.2639 7.43628 16.6514 7.82378 16.6514 8.40503C16.6514 8.98628 16.2639 9.37378 15.6827 9.37378H9.09519C7.64207 9.37378 6.38269 10.6332 6.38269 12.0863V58.005C6.38269 59.4582 7.64207 60.7175 9.09519 60.7175H45.5202C46.1014 60.7175 46.4889 61.105 46.4889 61.6863C46.4889 62.2675 46.1014 62.655 45.5202 62.655Z" fill="black"/>
<path d="M48.0389 39.405C47.4576 39.405 47.0701 39.0175 47.0701 38.4363V12.0863C47.0701 10.6332 45.8108 9.37378 44.3576 9.37378H37.7701C37.1889 9.37378 36.8014 8.98628 36.8014 8.40503C36.8014 7.82378 37.1889 7.43628 37.7701 7.43628H44.3576C46.8764 7.43628 49.0076 9.56753 49.0076 12.0863V38.4363C49.0076 39.0175 48.6201 39.405 48.0389 39.405Z" fill="black"/>
<path d="M40.4827 58.1018H11.9045C10.2577 58.1018 8.99829 56.8424 8.99829 55.1956V14.9924C8.99829 13.4424 10.0639 12.2799 11.6139 12.0862H15.5858C16.167 12.0862 16.5545 12.4737 16.5545 13.0549C16.5545 13.6362 16.167 14.0237 15.5858 14.0237H11.7108C11.4202 14.0237 10.9358 14.4112 10.9358 14.9924V55.1956C10.9358 55.7768 11.3233 56.1643 11.9045 56.1643H40.4827C41.0639 56.1643 41.4514 56.5518 41.4514 57.1331C41.4514 57.7143 41.0639 58.1018 40.4827 58.1018Z" fill="black"/>
<path d="M43.3889 39.4049C42.8076 39.4049 42.4201 39.0174 42.4201 38.4362V14.9924C42.4201 14.4112 41.9358 14.0237 41.5483 14.0237H37.7701C37.1889 14.0237 36.8014 13.6362 36.8014 13.0549C36.8014 12.4737 37.1889 12.0862 37.7701 12.0862H41.6451C43.292 12.2799 44.3576 13.4424 44.3576 14.9924V38.4362C44.3576 39.0174 43.9701 39.4049 43.3889 39.4049Z" fill="black"/>
<path d="M35.9296 16.3488H17.5234C15.9734 16.3488 14.714 15.0894 14.714 13.5394V7.92065C14.714 6.37065 15.9734 5.11128 17.5234 5.11128H18.589C19.8484 5.11128 21.1077 4.43315 21.689 3.36753C22.8515 1.72065 24.6921 0.655029 26.6296 0.655029H26.8234C28.7609 0.655029 30.6984 1.72065 31.6671 3.36753C32.3452 4.43315 33.6046 5.11128 34.7671 5.11128H35.8327C37.3827 5.11128 38.739 6.37065 38.739 7.92065V13.5394C38.739 15.0894 37.4796 16.3488 35.9296 16.3488ZM17.5234 7.04878C16.9421 7.04878 16.6515 7.53315 16.6515 7.92065V13.5394C16.6515 14.1207 17.1359 14.4113 17.5234 14.4113H35.9296C36.5109 14.4113 36.8015 13.9269 36.8015 13.5394V7.92065C36.8015 7.53315 36.414 7.04878 35.8327 7.04878H34.7671C32.9265 7.04878 30.989 5.98315 30.0202 4.33628C29.3421 3.27065 28.0827 2.59253 26.8234 2.59253H26.6296C25.3702 2.59253 24.1109 3.27065 23.3359 4.33628C22.464 5.98315 20.5265 7.04878 18.589 7.04878H17.5234Z" fill="black"/>
<path d="M28.6639 34.4643H24.7889C24.2077 34.4643 23.8202 34.0768 23.8202 33.4956V29.3299H19.6545C19.0733 29.3299 18.6858 28.9424 18.6858 28.3612V24.4862C18.6858 23.9049 19.0733 23.5174 19.6545 23.5174H23.8202V19.3518C23.8202 18.7706 24.2077 18.3831 24.7889 18.3831H28.6639C29.2452 18.3831 29.6327 18.7706 29.6327 19.3518V23.5174H33.7983C34.3795 23.5174 34.767 23.9049 34.767 24.4862V28.3612C34.767 28.9424 34.3795 29.3299 33.7983 29.3299H29.6327V33.4956C29.6327 34.0768 29.2452 34.4643 28.6639 34.4643ZM25.7577 32.5268H27.6952V28.3612C27.6952 27.7799 28.0827 27.3924 28.6639 27.3924H32.8295V25.4549H28.6639C28.0827 25.4549 27.6952 25.0674 27.6952 24.4862V20.3206H25.7577V24.4862C25.7577 25.0674 25.3702 25.4549 24.7889 25.4549H20.6233V27.3924H24.7889C25.3702 27.3924 25.7577 27.7799 25.7577 28.3612V32.5268Z" fill="black"/>
<path d="M31.764 39.4053H14.714C14.1327 39.4053 13.7452 39.0178 13.7452 38.4365C13.7452 37.8553 14.1327 37.4678 14.714 37.4678H31.764C32.3452 37.4678 32.7327 37.8553 32.7327 38.4365C32.7327 39.0178 32.3452 39.4053 31.764 39.4053Z" fill="black"/>
<path d="M29.9234 45.7021H14.714C14.1327 45.7021 13.7452 45.3146 13.7452 44.7334C13.7452 44.1521 14.1327 43.7646 14.714 43.7646H29.9234C30.5046 43.7646 30.8921 44.1521 30.8921 44.7334C30.8921 45.3146 30.5046 45.7021 29.9234 45.7021Z" fill="black"/>
<path d="M45.617 62.655C45.4233 62.655 45.2295 62.5581 45.0358 62.4612C44.5514 62.0737 32.7327 53.4519 32.7327 44.3456C32.7327 40.2769 36.1233 36.8862 40.192 36.8862C42.2264 36.8862 44.2608 37.7581 45.617 39.2112C46.9733 37.7581 49.0077 36.8862 51.042 36.8862C55.1108 36.8862 58.5014 40.2769 58.5014 44.3456C58.5014 53.4519 46.6827 62.0737 46.1983 62.4612C46.0045 62.5581 45.8108 62.655 45.617 62.655ZM40.192 38.8237C37.1889 38.8237 34.6702 41.3425 34.6702 44.3456C34.6702 51.4175 43.292 58.6831 45.617 60.4269C47.942 58.5862 56.5639 51.3206 56.5639 44.3456C56.5639 41.3425 54.0452 38.8237 51.042 38.8237C49.2014 38.8237 47.4577 39.7925 46.392 41.3425C46.1983 41.6331 45.9077 41.73 45.617 41.73C45.3264 41.73 45.0358 41.5362 44.842 41.3425C43.7764 39.7925 42.0327 38.8237 40.192 38.8237Z" fill="black"/>
</g>
<defs>
<clipPath id="clip0_2150_107">
<rect width="62" height="62" fill="white" transform="translate(0.473267 0.655029)"/>
</clipPath>
</defs>
</svg>
