<svg width="71" height="71" viewBox="0 0 71 71" fill="none" xmlns="http://www.w3.org/2000/svg">
<path d="M53.2436 38.8022C55.2756 40.4373 58.0524 41.0799 58.4827 41.1715C58.4905 41.1729 58.4976 41.1722 58.5054 41.1736C58.5807 41.1885 58.6566 41.1978 58.7326 41.1978C58.8043 41.1978 58.8753 41.1885 58.9456 41.1765C58.9676 41.1722 58.9896 41.1665 59.0124 41.1615C59.0372 41.1559 59.0613 41.1523 59.0862 41.1445C59.1061 41.1381 59.1224 41.1275 59.1416 41.1211C59.1799 41.1069 59.2168 41.0913 59.253 41.0735C59.29 41.0558 59.3255 41.0359 59.3603 41.0139C59.3922 40.994 59.4234 40.9727 59.4526 40.95C59.4859 40.9244 59.5179 40.8967 59.5491 40.8676C59.564 40.8534 59.5825 40.842 59.5974 40.8264C60.0319 40.3685 63.8155 36.2491 62.6674 32.5407C62.1165 30.7615 61.033 29.2513 59.6144 28.29C58.1135 27.2718 56.423 26.98 54.851 27.4664C54.7289 27.504 54.6132 27.5544 54.4953 27.6005C54.4811 25.7474 54.0431 24.1315 53.9344 23.7587C53.933 23.7552 53.9323 23.7509 53.9316 23.7481C53.9302 23.7431 53.9281 23.7353 53.9266 23.731C53.9238 23.7211 53.9174 23.7133 53.9146 23.7034C53.8897 23.6267 53.8571 23.5535 53.818 23.4847C53.8031 23.4584 53.786 23.4343 53.7697 23.4087C53.7527 23.3831 53.7399 23.3555 53.7207 23.3306C53.6994 23.3036 53.6739 23.2823 53.6504 23.2575C53.6299 23.2362 53.6107 23.2135 53.5894 23.1943C53.5304 23.1403 53.4665 23.0913 53.3977 23.0494C53.3885 23.0438 53.3799 23.036 53.3707 23.031C53.2912 22.9863 53.2053 22.9522 53.1158 22.9252C53.108 22.9231 53.1009 22.9181 53.0931 22.916C52.4839 22.7534 47.0595 21.393 44.3473 24.1734C41.8964 26.6854 41.3717 30.2559 42.9394 32.6316C41.305 35.2898 41.7878 39.2353 41.8602 39.7572C41.8623 39.7721 41.8694 39.7863 41.8722 39.8012C41.885 39.8708 41.9035 39.9389 41.9276 40.0042C41.9369 40.0291 41.9454 40.0539 41.956 40.0781C41.988 40.1491 42.027 40.2158 42.0718 40.279C42.081 40.2918 42.0867 40.306 42.0966 40.3188C42.0987 40.3216 42.1002 40.3252 42.1023 40.328C42.1513 40.3905 42.2081 40.4409 42.2656 40.4899C42.2784 40.5005 42.2876 40.5147 42.3011 40.5247C42.3785 40.585 42.4615 40.6361 42.5496 40.6759C42.5553 40.678 42.5595 40.6823 42.5645 40.6851C42.9422 40.8499 45.2788 41.8226 47.7148 41.8226C49.0078 41.8226 50.3284 41.5492 51.4012 40.7355C52.1417 40.1725 52.7565 39.5129 53.2436 38.8022ZM49.957 38.8349C48.8778 39.6549 47.041 39.5023 45.5387 39.1487L45.8163 38.9314C46.3346 38.5253 46.4255 37.7741 46.0187 37.2558C45.6118 36.7368 44.8606 36.6452 44.3431 37.0535L44.1492 37.2054C44.1989 36.2292 44.3636 35.1535 44.7548 34.2973C45.5444 34.7254 46.4468 34.9512 47.4159 34.9512C47.6836 34.9512 47.9562 34.9348 48.2324 34.9001C49.1526 34.7865 50.0571 34.479 50.902 34.0147C50.9375 34.6906 51.0561 35.3814 51.2691 36.0701C51.36 36.3634 51.4807 36.6396 51.6198 36.903C51.2443 37.6094 50.6848 38.2818 49.957 38.8349ZM49.8605 24.8486L47.0453 27.0631C46.527 27.4706 46.4368 28.2204 46.8444 28.7387C47.0801 29.0383 47.4294 29.1945 47.7837 29.1945C48.0414 29.1945 48.3006 29.1107 48.52 28.9389L51.994 26.2068C52.1566 27.4813 52.1722 29.0468 51.6475 30.1438C51.5226 30.4043 51.3706 30.6422 51.1782 30.8396C51.0831 30.9368 50.9851 31.0277 50.8857 31.1172C50.4966 31.4693 50.0749 31.7647 49.6333 31.994C49.0887 32.2766 48.5157 32.4605 47.9392 32.5329C47.5004 32.5855 47.0837 32.5656 46.6981 32.4853C46.1969 32.381 45.7524 32.1658 45.3896 31.8471C45.3548 31.8165 45.3172 31.7895 45.2838 31.7562C45.0254 31.5041 44.8273 31.2081 44.6846 30.8836C44.0491 29.4323 44.5525 27.3797 46.0534 25.8405C46.806 25.0687 48.1217 24.8351 49.4011 24.8351C49.5552 24.8351 49.7078 24.8422 49.8605 24.8486ZM58.2754 30.2659C59.2459 30.9241 59.9964 31.9834 60.3883 33.2479C60.7845 34.5294 60.0319 36.1823 59.1955 37.4674L57.7549 32.8134C57.5604 32.1836 56.8958 31.8357 56.2625 32.0267C55.6328 32.2212 55.2813 32.89 55.4758 33.5191L56.9143 38.1653C55.9828 37.7756 54.9838 37.2324 54.3001 36.5402C53.9501 36.1866 53.6817 35.7939 53.5489 35.363C53.1527 34.0836 53.1939 32.8041 53.5766 31.7768C53.9458 30.787 54.6324 30.0323 55.5575 29.7455C55.8167 29.6652 56.0843 29.6255 56.3555 29.6255C56.9924 29.6262 57.6527 29.8441 58.2754 30.2659ZM12.8198 29.5332C16.1092 29.5332 18.7859 26.3218 18.7859 22.3742C18.7859 18.4912 13.9536 15.6754 13.4027 15.3665C13.3885 15.3587 13.3728 15.3559 13.3579 15.3488C13.2976 15.3183 13.2351 15.2934 13.1712 15.2735C13.1449 15.265 13.1194 15.2558 13.0924 15.2494C13.0093 15.2295 12.9255 15.2189 12.8411 15.2174C12.834 15.2167 12.8269 15.2153 12.8198 15.2153C12.8127 15.2153 12.8056 15.2174 12.7985 15.2174C12.714 15.2189 12.6309 15.2302 12.5478 15.2494C12.5208 15.2558 12.4953 15.265 12.469 15.2735C12.4051 15.2934 12.3426 15.3183 12.2823 15.3488C12.2681 15.3559 12.2518 15.3587 12.2376 15.3665C11.6866 15.6754 6.85434 18.492 6.85434 22.3742C6.85363 26.3211 9.53033 29.5332 12.8198 29.5332ZM11.6262 18.6957V23.567C11.6262 24.2266 12.1602 24.7605 12.819 24.7605C13.4779 24.7605 14.0126 24.2266 14.0126 23.567V18.6957C15.1912 19.6755 16.3989 21.0323 16.3989 22.3742C16.3989 25.0062 14.7928 27.1469 12.819 27.1469C10.8452 27.1469 9.23994 25.0062 9.23994 22.3742C9.23994 21.0316 10.4469 19.6755 11.6262 18.6957ZM40.6532 20.7228H40.6546C41.2176 20.9273 41.7956 21.0132 42.3721 21.0132C45.538 21.0132 48.6712 18.3947 49.0759 18.0454C49.0795 18.0425 49.0816 18.0383 49.0851 18.0354C49.154 17.9744 49.2151 17.9055 49.2676 17.8309C49.2754 17.8196 49.2825 17.8082 49.2903 17.7962C49.34 17.7202 49.3848 17.6392 49.4174 17.5505C49.4501 17.4603 49.4678 17.3687 49.4778 17.2779C49.4806 17.2551 49.4799 17.2317 49.4806 17.209C49.4849 17.138 49.4827 17.0663 49.4735 16.9946C49.4714 16.9797 49.4742 16.9655 49.4721 16.9505C49.3713 16.3272 48.3673 10.8261 44.7172 9.50406C42.9649 8.87003 41.1062 8.82317 39.4845 9.37484C37.7684 9.95775 36.5139 11.13 35.9537 12.6771C34.8333 15.7684 36.942 19.378 40.6532 20.7228ZM40.2499 11.6326C41.3632 11.2556 42.6582 11.2947 43.9028 11.747C45.1652 12.2042 46.0293 13.8003 46.5497 15.2423L41.9695 13.5844C41.3447 13.3594 40.6645 13.681 40.4409 14.3001C40.2172 14.9199 40.5374 15.6037 41.1566 15.8287L45.7311 17.4845C44.4112 18.2534 42.7179 18.9343 41.4668 18.4785C38.9918 17.5824 37.5249 15.3424 38.1973 13.4879C38.5047 12.6359 39.2339 11.9777 40.2499 11.6326ZM53.72 17.564C55.2124 18.7376 56.9534 19.3198 58.5864 19.3198C60.3464 19.3198 61.9809 18.6425 63.0359 17.3006C65.0694 14.7148 64.1989 10.6259 61.0969 8.18488C58.0453 5.78579 52.8439 7.84266 52.261 8.08548C52.2475 8.09116 52.2375 8.10039 52.2248 8.10678C52.1573 8.13731 52.0941 8.17423 52.0352 8.21541C52.0153 8.22961 51.9947 8.24239 51.9756 8.2573C51.9145 8.30629 51.8591 8.36167 51.8087 8.42202C51.7988 8.43409 51.7867 8.44332 51.7768 8.4561C51.7746 8.45894 51.7711 8.46107 51.7696 8.46462C51.715 8.53704 51.671 8.61443 51.6355 8.69324C51.6255 8.71454 51.6205 8.73655 51.6113 8.75785C51.5865 8.82246 51.5666 8.8892 51.5531 8.95807C51.5503 8.97298 51.5424 8.98647 51.5403 9.00209C51.4423 9.62476 50.6699 15.1635 53.72 17.564ZM59.6222 10.0607C61.6905 11.6873 62.3806 14.2731 61.1601 15.8252C59.941 17.3773 57.2636 17.3155 55.1954 15.6875C54.1304 14.8497 53.8144 13.0335 53.7782 11.4906L54.0601 11.7051C54.2759 11.8691 54.5301 11.9486 54.7815 11.9486C55.1414 11.9486 55.4979 11.7867 55.7322 11.4779C56.1312 10.9532 56.0289 10.2041 55.505 9.80581L55.304 9.65316C56.7943 9.34005 58.5785 9.23923 59.6222 10.0607ZM22.8499 19.7877C21.2766 22.4275 21.3866 25.5998 23.332 27.4983C24.3502 28.4923 25.7056 28.9751 27.1405 28.9751C29.0212 28.9751 31.0369 28.143 32.6025 26.5398C35.3133 23.7609 33.8216 18.3705 33.6426 17.7656C33.6377 17.7493 33.6284 17.7365 33.6228 17.7209C33.6007 17.6556 33.5731 17.5931 33.5397 17.5335C33.5262 17.5086 33.5141 17.4838 33.4985 17.4603C33.4587 17.3986 33.4126 17.3425 33.3629 17.2899C33.3487 17.275 33.338 17.258 33.3224 17.2438C33.3203 17.2416 33.3189 17.2395 33.3167 17.2374C33.2514 17.1756 33.1797 17.1238 33.1052 17.0798C33.0846 17.0677 33.0619 17.0592 33.0413 17.0478C32.9802 17.0166 32.917 16.9896 32.8503 16.969C32.8354 16.964 32.8226 16.9555 32.8084 16.9513C32.5734 16.8881 31.6213 16.6481 30.3859 16.5359C30.9276 14.8163 30.8041 12.7544 29.8775 10.8353C28.2147 7.3911 22.7825 6.91753 22.0178 6.86712C22.01 6.86641 22.0008 6.8657 21.9937 6.8657C21.9908 6.8657 21.9859 6.86499 21.983 6.86499C21.9773 6.86499 21.9717 6.86641 21.966 6.86641C21.8786 6.86286 21.7934 6.86996 21.7097 6.88416C21.682 6.88771 21.655 6.89481 21.6287 6.9012C21.5982 6.9083 21.567 6.91114 21.5364 6.92179C21.5031 6.93244 21.4732 6.95019 21.442 6.96368C21.415 6.97504 21.3873 6.9864 21.3618 6.99989C21.2908 7.03681 21.2233 7.08012 21.1608 7.13053C21.1523 7.13692 21.1424 7.1426 21.1346 7.1497C21.065 7.20934 21.0032 7.27892 20.9471 7.35489C20.9422 7.36128 20.9365 7.36554 20.9322 7.37122C20.5701 7.88881 17.4426 12.5251 19.1309 16.0219C19.9787 17.7777 21.3362 19.0834 22.8499 19.7877ZM22.7669 14.4705C22.9323 14.9718 23.3988 15.2891 23.9 15.2891C24.0236 15.2891 24.1492 15.2707 24.2735 15.2295C24.899 15.0236 25.2391 14.3484 25.0332 13.7215L23.648 9.51897C25.21 9.86545 27.1 10.5726 27.7269 11.8712C28.5328 13.5411 28.5108 15.336 27.8086 16.5522C26.6058 16.6978 25.3967 17.0748 24.4389 17.8636C23.2028 17.5086 21.9972 16.472 21.2787 14.9838C20.754 13.8961 21.1047 12.3732 21.6436 11.0625L22.7669 14.4705ZM29.1171 18.869C29.4487 18.869 29.7738 18.8881 30.0898 18.9144L29.8498 19.1686C29.3975 19.6471 29.4188 20.4026 29.8981 20.8541C30.1281 21.0721 30.4228 21.1807 30.7174 21.1807C31.0341 21.1807 31.35 21.0551 31.5851 20.8066L31.754 20.6283C31.9017 22.1378 31.813 23.9313 30.8935 24.8734C29.0546 26.7564 26.4106 27.1674 24.9984 25.79C23.7069 24.5298 23.8894 22.2045 25.3349 20.3756C25.4698 20.2038 25.6118 20.0355 25.7694 19.8743C26.5007 19.1246 27.7645 18.8839 29.0113 18.8718C29.0461 18.8711 29.0816 18.869 29.1171 18.869ZM63.2425 53.1556C62.3494 51.6944 60.891 50.5392 59.1402 49.9052C55.4872 48.5839 51.1967 52.168 50.7181 52.5819C50.7068 52.5918 50.6997 52.6046 50.689 52.6146C50.6358 52.6643 50.5882 52.7182 50.5456 52.7757C50.5321 52.7935 50.5172 52.8105 50.5044 52.8297C50.454 52.9064 50.4093 52.988 50.3766 53.0775C50.344 53.1684 50.3262 53.2592 50.3156 53.3508C50.3134 53.3735 50.3141 53.3963 50.3127 53.4197C50.3092 53.4907 50.3113 53.5624 50.3205 53.6348C50.322 53.649 50.3191 53.6632 50.322 53.6781C50.4228 54.3015 51.426 59.804 55.0768 61.1246C56.0183 61.4654 56.9903 61.6365 57.9403 61.6365C58.7582 61.6365 59.5598 61.5094 60.3102 61.2545C62.0263 60.6716 63.2802 59.4994 63.8411 57.953C64.3998 56.406 64.1875 54.702 63.2425 53.1556ZM59.5427 58.9946C58.428 59.3723 57.133 59.3312 55.8891 58.8803C54.6281 58.4245 53.764 56.8277 53.2436 55.3857L57.8231 57.0442C57.9573 57.0932 58.0943 57.1152 58.2299 57.1152C58.7184 57.1152 59.1757 56.8135 59.3517 56.3286C59.5754 55.7087 59.2552 55.025 58.6361 54.7999L54.0551 53.1414C55.3793 52.3661 57.067 51.6916 58.3258 52.1502H58.3272C59.5718 52.6003 60.5935 53.3991 61.2056 54.4002C61.7657 55.3161 61.9049 56.2888 61.5953 57.1394C61.2886 57.9914 60.5587 58.6496 59.5427 58.9946ZM43.6863 46.4532C42.2216 45.3008 40.4856 44.7158 38.7589 44.6888C36.9456 44.7037 35.3871 45.4244 34.3704 46.7166C33.3537 48.0088 33.0214 49.6936 33.4339 51.4594C33.8237 53.1272 34.8454 54.6799 36.3101 55.8323C37.4106 56.6978 38.793 56.9832 40.1356 56.9832C42.5148 56.9832 44.7733 56.0872 45.1461 55.9331C45.1567 55.9288 45.1645 55.921 45.1752 55.916C45.2327 55.8905 45.2852 55.8564 45.337 55.823C45.3662 55.8046 45.3967 55.789 45.4244 55.7677C45.4748 55.7279 45.5174 55.6803 45.5607 55.6335C45.5834 55.6086 45.6097 55.588 45.631 55.5603C45.6331 55.5582 45.636 55.5561 45.6374 55.5532C45.6928 55.4808 45.7361 55.4041 45.7716 55.3246C45.7815 55.3033 45.7865 55.2813 45.795 55.26C45.8206 55.1954 45.8404 55.1287 45.8539 55.0591C45.8568 55.0442 45.8646 55.0307 45.8667 55.0158C45.9647 54.3931 46.7372 48.8537 43.6863 46.4532ZM37.7841 53.9557C36.7439 53.1378 36.024 52.0572 35.7577 50.9155C35.5128 49.8704 35.6867 48.9034 36.2469 48.1913C36.8064 47.4805 37.7045 47.0829 38.7788 47.0751H38.8157C39.9773 47.0751 41.1807 47.5189 42.2109 48.329C43.2759 49.1668 43.5919 50.983 43.6281 52.5258L43.3469 52.3121C42.8222 51.9124 42.0746 52.0146 41.6749 52.5393C41.2758 53.064 41.3781 53.8116 41.9021 54.2113L42.098 54.3604C40.6134 54.6686 38.8207 54.7708 37.7841 53.9557ZM27.0837 50.3078C23.9178 49.416 20.4707 51.7839 19.4008 55.5824V55.5838C18.3599 59.2793 22.1513 63.2518 22.666 63.7694L22.6845 63.7871C22.7079 63.8098 22.7349 63.8276 22.7598 63.8489C22.7917 63.8759 22.8222 63.905 22.8563 63.9284C22.8968 63.9554 22.9415 63.9774 22.9862 64.0001C23.0104 64.0122 23.0317 64.0285 23.0565 64.0385C23.0594 64.0399 23.0622 64.0399 23.0644 64.0406C23.1261 64.0669 23.1893 64.0846 23.2518 64.0995C23.2653 64.1024 23.2781 64.1087 23.2923 64.1116C23.364 64.1265 23.4364 64.1322 23.5088 64.1336C23.5145 64.1343 23.5209 64.1357 23.5266 64.1357H23.528C23.6089 64.135 23.6906 64.1237 23.7715 64.1073C23.7829 64.1052 23.7942 64.1059 23.8056 64.1031C24.419 63.9554 29.8335 62.5538 30.8857 58.8178C31.3905 57.0237 31.3018 55.1677 30.6337 53.5894C29.9279 51.9195 28.667 50.7544 27.0837 50.3078ZM25.7176 60.8648L27.1334 57.5696C27.3932 56.9654 27.1135 56.2625 26.5071 56.0027C25.9029 55.7449 25.2007 56.0226 24.9402 56.6289L23.1957 60.6894C22.2649 59.4 21.3099 57.6073 21.6969 56.2299V56.2313C22.4104 53.6973 24.5369 52.0728 26.4361 52.606C27.3073 52.851 28.0173 53.5297 28.4362 54.5195C28.8934 55.5994 28.9474 56.8966 28.5889 58.1696C28.2615 59.3319 26.9899 60.2392 25.7176 60.8648ZM21.1623 44.7683C21.1324 43.9994 20.923 43.2738 20.5772 42.6107C21.3419 42.2592 22.0746 41.7693 22.7413 41.1516C24.086 44.6207 29.247 45.8163 29.847 45.9441C29.8541 45.9455 29.8605 45.9448 29.8676 45.9462C29.9421 45.9611 30.0181 45.9711 30.0955 45.9711H30.0976C30.1693 45.9711 30.2396 45.9619 30.3085 45.9498C30.3305 45.9455 30.3532 45.9398 30.3759 45.9349C30.4001 45.9292 30.4249 45.9256 30.4491 45.9178C30.4689 45.9122 30.486 45.9015 30.5051 45.8944C30.5435 45.8802 30.5804 45.8646 30.6166 45.8468C30.6535 45.8291 30.6897 45.8092 30.7245 45.7872C30.7565 45.7673 30.787 45.7467 30.8161 45.7247C30.8502 45.6992 30.8822 45.6707 30.9141 45.6409C30.929 45.6267 30.9468 45.6161 30.961 45.6005C31.3962 45.1425 35.1798 41.0238 34.0317 37.3148C33.4815 35.5355 32.3973 34.0253 30.9787 33.064C29.4778 32.0459 27.788 31.7519 26.2153 32.2404C25.5238 32.4548 24.9125 32.8148 24.3828 33.277C24.2685 32.6948 24.1528 32.2759 24.1045 32.1105C24.1038 32.109 24.1031 32.1076 24.1031 32.1055C24.101 32.0991 24.0988 32.0906 24.0967 32.0849C24.0938 32.0728 24.086 32.0636 24.0825 32.0522C24.0576 31.9777 24.0264 31.9067 23.9888 31.84C23.9739 31.8137 23.9568 31.7881 23.9398 31.7626C23.9227 31.737 23.91 31.71 23.8908 31.6852C23.8695 31.6582 23.8432 31.6369 23.8205 31.612C23.8006 31.5907 23.7807 31.568 23.7594 31.5489C23.7005 31.4942 23.6366 31.4452 23.567 31.4033C23.5578 31.3976 23.5493 31.3905 23.54 31.3848C23.4605 31.3401 23.3746 31.306 23.2852 31.2798C23.2766 31.2769 23.2703 31.2727 23.2617 31.2698C22.6518 31.1065 17.2267 29.7483 14.5152 32.5272C12.5812 34.5096 11.8492 37.1508 12.3938 39.3447C9.28254 40.3926 7.23561 44.2422 6.98356 44.7357C6.97646 44.7499 6.97433 44.7669 6.96723 44.7818C6.93812 44.8443 6.9154 44.9096 6.89836 44.9757C6.89126 45.0019 6.88345 45.0282 6.87848 45.0552C6.86428 45.1297 6.8586 45.2057 6.8586 45.2817C6.85931 45.2987 6.85576 45.315 6.85647 45.3328C6.85647 45.3363 6.85576 45.3399 6.85576 45.3434C6.86073 45.4329 6.87777 45.5195 6.9012 45.6026C6.90759 45.6239 6.91611 45.6431 6.92321 45.6637C6.94664 45.7318 6.97646 45.7993 7.01267 45.8632C7.01906 45.8731 7.0219 45.8866 7.029 45.8987C7.35347 46.4283 10.2666 51.0107 14.058 51.0107C14.1183 51.0107 14.1787 51.0092 14.239 51.0071C18.1838 50.853 21.2901 48.0556 21.1623 44.7683ZM10.3447 46.3445L10.7004 46.3254C11.3586 46.2892 11.8627 45.7276 11.8265 45.0694C11.7903 44.4112 11.2215 43.8816 10.5698 43.9433L10.3163 43.9575C11.164 42.8627 12.3107 41.7445 13.5099 41.5123C13.6292 41.4889 13.7499 41.4732 13.8698 41.4683C14.4577 41.4399 15.0236 41.5002 15.5504 41.6259C15.9374 41.7182 16.303 41.8467 16.6388 42.0093C17.2835 42.321 17.8189 42.7505 18.1937 43.2603C18.5431 43.736 18.7554 44.2792 18.7781 44.8614C18.854 46.833 16.7766 48.52 14.1467 48.6229C12.7828 48.6783 11.3692 47.4976 10.3447 46.3445ZM20.0305 33.2003L17.2147 35.4148C16.6964 35.8223 16.6069 36.5721 17.0144 37.0904C17.2494 37.39 17.6002 37.5455 17.9531 37.5455C18.2108 37.5455 18.4714 37.4617 18.69 37.2906L22.1648 34.5585C22.3657 36.1369 22.3472 38.1675 21.3483 39.1913C20.6369 39.919 19.8062 40.4239 18.9719 40.6937C17.8615 39.814 16.4102 39.2403 14.8063 39.1111C14.2497 37.6683 14.7644 35.6882 16.2235 34.1922C16.9761 33.4204 18.291 33.1868 19.5719 33.1868C19.7259 33.1875 19.8779 33.1939 20.0305 33.2003ZM29.6375 35.0385C30.6088 35.6967 31.3593 36.756 31.7505 38.0205C32.1474 39.3021 31.3948 40.9549 30.5584 42.24L29.1178 37.5853C28.9226 36.9562 28.2544 36.6033 27.6247 36.7986C26.9956 36.9931 26.6427 37.662 26.838 38.291L28.2765 42.9373C26.8671 42.348 25.3037 41.4072 24.9111 40.1356C24.1329 37.6222 25.0339 35.1017 26.9197 34.5181C27.1781 34.4378 27.4465 34.3981 27.7184 34.3981C28.3553 34.3988 29.0156 34.6168 29.6375 35.0385Z" fill="black"/>
</svg>
