<svg width="73" height="73" viewBox="0 0 73 73" fill="none" xmlns="http://www.w3.org/2000/svg">
<g clip-path="url(#clip0_2150_418)">
<path d="M35.1801 53.0653H3.41799C2.78592 53.0653 2.20325 52.7279 1.88739 52.1798C1.57294 51.6314 1.57471 50.9569 1.8941 50.4117L20.0488 19.2898C21.7414 16.3856 24.7602 14.6521 28.1228 14.6521C31.4836 14.6521 34.5025 16.3856 36.1951 19.2898L44.6456 33.7745C45.1369 34.6159 44.8517 35.6965 44.0104 36.1874C43.1673 36.6818 42.087 36.3953 41.5975 35.5521L33.1469 21.0674C32.0928 19.2601 30.2149 18.1813 28.1228 18.1813C26.029 18.1813 24.1515 19.2601 23.0969 21.0674L6.49083 49.5357H35.1801C36.1541 49.5357 36.9447 50.3263 36.9447 51.3003C36.9447 52.2744 36.1541 53.0653 35.1801 53.0653Z" fill="black"/>
<path d="M70.4713 53.0654H33.4151C32.783 53.0654 32.2004 52.728 31.8845 52.1799C31.5701 51.6315 31.5718 50.9571 31.8912 50.4118L43.871 29.8767C45.5635 26.9725 48.5806 25.239 51.9414 25.239C55.304 25.239 58.3225 26.9725 60.0169 29.8767L71.9952 50.4118C72.3146 50.9571 72.316 51.6315 72.0019 52.1799C71.686 52.728 71.103 53.0654 70.4713 53.0654ZM36.488 49.5359H67.3985L56.9687 31.6543C55.9146 29.847 54.0353 28.7682 51.9429 28.7682C49.8504 28.7682 47.9729 29.847 46.9187 31.6543L36.488 49.5359Z" fill="black"/>
<path d="M28.1218 42.4772C29.0963 42.4772 29.8863 41.6871 29.8863 40.7126C29.8863 39.738 29.0963 38.948 28.1218 38.948C27.1472 38.948 26.3572 39.738 26.3572 40.7126C26.3572 41.6871 27.1472 42.4772 28.1218 42.4772Z" fill="black"/>
<path d="M24.5926 31.8898C25.5671 31.8898 26.3572 31.0997 26.3572 30.1252C26.3572 29.1506 25.5671 28.3606 24.5926 28.3606C23.618 28.3606 22.828 29.1506 22.828 30.1252C22.828 31.0997 23.618 31.8898 24.5926 31.8898Z" fill="black"/>
<path d="M49.2967 38.9481C50.2713 38.9481 51.0613 38.1581 51.0613 37.1835C51.0613 36.209 50.2713 35.4189 49.2967 35.4189C48.3222 35.4189 47.5321 36.209 47.5321 37.1835C47.5321 38.1581 48.3222 38.9481 49.2967 38.9481Z" fill="black"/>
<path d="M56.355 46.0065C57.3296 46.0065 58.1196 45.2164 58.1196 44.2419C58.1196 43.2673 57.3296 42.4773 56.355 42.4773C55.3805 42.4773 54.5905 43.2673 54.5905 44.2419C54.5905 45.2164 55.3805 46.0065 56.355 46.0065Z" fill="black"/>
<path d="M17.5343 46.0065C18.5088 46.0065 19.2988 45.2164 19.2988 44.2419C19.2988 43.2673 18.5088 42.4773 17.5343 42.4773C16.5597 42.4773 15.7697 43.2673 15.7697 44.2419C15.7697 45.2164 16.5597 46.0065 17.5343 46.0065Z" fill="black"/>
</g>
<defs>
<clipPath id="clip0_2150_418">
<rect width="72" height="72" fill="white" transform="translate(0.944641 0.858887)"/>
</clipPath>
</defs>
</svg>
