<svg width="65" height="64" viewBox="0 0 65 64" fill="none" xmlns="http://www.w3.org/2000/svg">
<path d="M31.745 32.2695H31.7826V33.7598C31.7878 34.0215 31.8955 34.2708 32.0825 34.4541C32.2694 34.6373 32.5208 34.7399 32.7826 34.7399C33.0444 34.7399 33.2958 34.6373 33.4828 34.454C33.6697 34.2707 33.7774 34.0215 33.7826 33.7597V32.2695H33.8202C34.6907 32.2686 35.5252 31.9224 36.1407 31.3069C36.7563 30.6914 37.1025 29.8568 37.1034 28.9863V26.9111C37.1025 26.0407 36.7563 25.2061 36.1407 24.5906C35.5252 23.9751 34.6907 23.6289 33.8202 23.6279H31.745C31.4048 23.6276 31.0786 23.4923 30.838 23.2517C30.5974 23.0112 30.4621 22.685 30.4618 22.3447V20.2695C30.4621 19.9293 30.5974 19.6031 30.838 19.3625C31.0786 19.1219 31.4048 18.9866 31.745 18.9863H33.8202C34.1604 18.9866 34.4866 19.1219 34.7272 19.3625C34.9678 19.6031 35.1031 19.9293 35.1034 20.2695V21.3076C35.1085 21.5695 35.2161 21.8189 35.4031 22.0022C35.5901 22.1856 35.8415 22.2883 36.1034 22.2883C36.3653 22.2883 36.6168 22.1856 36.8037 22.0022C36.9907 21.8188 37.0983 21.5694 37.1034 21.3076V20.2696C37.1028 19.8354 37.0163 19.4056 36.8487 19.0051C36.6812 18.6046 36.4359 18.2412 36.1272 17.9359C35.8184 17.6307 35.4523 17.3896 35.0499 17.2266C34.6475 17.0636 34.2167 16.982 33.7826 16.9863V15.4961C33.7826 15.2309 33.6772 14.9765 33.4897 14.789C33.3022 14.6015 33.0478 14.4961 32.7826 14.4961C32.5174 14.4961 32.263 14.6015 32.0755 14.789C31.8879 14.9765 31.7826 15.2309 31.7826 15.4961V16.9863H31.745C30.8745 16.9873 30.04 17.3335 29.4244 17.949C28.8089 18.5645 28.4627 19.3991 28.4618 20.2695V22.3447C28.4627 23.2152 28.8089 24.0498 29.4244 24.6653C30.04 25.2808 30.8745 25.627 31.745 25.6279H33.8202C34.1604 25.6283 34.4866 25.7635 34.7272 26.0041C34.9678 26.2447 35.1031 26.5709 35.1034 26.9111V28.9863C35.1031 29.3266 34.9678 29.6528 34.7272 29.8933C34.4866 30.1339 34.1604 30.2692 33.8202 30.2695H31.745C31.4048 30.2692 31.0786 30.1339 30.838 29.8933C30.5974 29.6528 30.4621 29.3266 30.4618 28.9863V27.9482C30.4567 27.6864 30.3491 27.437 30.1621 27.2536C29.9751 27.0703 29.7237 26.9676 29.4618 26.9676C29.1999 26.9676 28.9484 27.0703 28.7615 27.2537C28.5745 27.4371 28.4669 27.6865 28.4618 27.9483V28.9863C28.4627 29.8568 28.8089 30.6914 29.4244 31.3069C30.0399 31.9224 30.8745 32.2686 31.745 32.2695Z" fill="black"/>
<path d="M32.7826 39.3846C36.695 39.3801 40.4458 37.8239 43.2123 35.0575C45.9788 32.291 47.535 28.5402 47.5395 24.6278C46.7285 5.05089 18.8337 5.05659 18.0258 24.6279C18.0303 28.5403 19.5865 32.2911 22.353 35.0575C25.1194 37.824 28.8703 39.3801 32.7826 39.3846ZM32.7826 11.8709C36.1648 11.8748 39.4073 13.22 41.7989 15.6116C44.1904 18.0031 45.5356 21.2456 45.5395 24.6278C44.8388 41.5515 20.7239 41.5466 20.0258 24.6277C20.0296 21.2456 21.3749 18.003 23.7664 15.6115C26.158 13.22 29.4005 11.8748 32.7826 11.8709Z" fill="black"/>
<path d="M8.90471 50.799C9.14516 51.1133 9.47363 51.3489 9.84837 51.4761C10.2231 51.6032 10.6272 51.616 11.0092 51.5129L18.4047 49.5314L20.3866 56.9269C20.4939 57.305 20.7095 57.6435 21.0069 57.9004C21.3043 58.1574 21.6704 58.3217 22.0601 58.373C22.4497 58.4243 22.8459 58.3604 23.1997 58.1891C23.5534 58.0178 23.8493 57.7467 24.0507 57.4093L25.1249 55.549C25.2518 55.3196 25.2836 55.0496 25.2134 54.797C25.1432 54.5444 24.9767 54.3295 24.7496 54.1985C24.5226 54.0674 24.2532 54.0307 23.9994 54.0963C23.7456 54.1618 23.5277 54.3244 23.3925 54.549L22.3183 56.4093L20.0776 48.048C20.0438 47.921 19.9852 47.802 19.9053 47.6977C19.8255 47.5934 19.7258 47.506 19.612 47.4403C19.4982 47.3746 19.3726 47.332 19.2424 47.315C19.1121 47.2979 18.9798 47.3068 18.853 47.341L10.4916 49.5812L17.1501 38.0491C20.1986 41.6055 24.3674 44.0176 28.9699 44.8881L25.7436 50.4758C25.6779 50.5895 25.6352 50.7151 25.618 50.8454C25.6008 50.9756 25.6094 51.108 25.6434 51.2349C25.6774 51.3618 25.7361 51.4808 25.8161 51.585C25.896 51.6893 25.9958 51.7767 26.1096 51.8424C26.2233 51.9081 26.349 51.9507 26.4792 51.9678C26.6095 51.985 26.7419 51.9762 26.8688 51.9422C26.9957 51.9081 27.1146 51.8494 27.2188 51.7694C27.323 51.6894 27.4104 51.5896 27.476 51.4758L31.116 45.1716C32.2263 45.2771 33.344 45.2803 34.4548 45.1813L41.5151 57.4094C41.7165 57.7468 42.0123 58.0179 42.3661 58.1891C42.7198 58.3603 43.1159 58.4242 43.5055 58.3729C43.8952 58.3216 44.2612 58.1573 44.5585 57.9003C44.8559 57.6434 45.0714 57.3049 45.1786 56.9268L47.1606 49.5314L54.5561 51.5129C54.9372 51.6089 55.3379 51.5912 55.7091 51.4621C56.0802 51.3331 56.4054 51.0982 56.6446 50.7865C56.8838 50.4747 57.0266 50.0998 57.0552 49.708C57.0839 49.3161 56.9973 48.9244 56.806 48.5812L49.7435 36.3492C52.1393 32.9108 53.4197 28.8188 53.4111 24.6281C52.283 -2.72628 13.2883 -2.74067 12.1542 24.6283C12.1521 28.8168 13.4331 32.9054 15.8248 36.344L8.7592 48.5812C8.56074 48.9236 8.4686 49.3173 8.49452 49.7122C8.52043 50.1072 8.66321 50.4854 8.90471 50.799ZM32.7826 6.00017C49.3293 5.96966 57.6884 26.3509 45.8386 37.9026C45.6496 38.0886 45.5423 38.3421 45.5401 38.6072C45.538 38.8724 45.6412 39.1275 45.8271 39.3166C46.8671 40.2695 47.7637 38.7283 48.4172 38.0525L55.0736 49.5812L46.7123 47.341C46.5855 47.3069 46.4532 47.2981 46.3229 47.3152C46.1927 47.3323 46.0672 47.3749 45.9534 47.4406C45.8397 47.5062 45.74 47.5937 45.6601 47.6979C45.5802 47.8021 45.5216 47.9211 45.4877 48.048L43.247 56.4093L36.5966 44.8904C39.0687 44.4293 41.435 43.5178 43.5775 42.2013C43.7976 42.0595 43.9534 41.8369 44.0113 41.5816C44.0692 41.3262 44.0246 41.0582 43.8872 40.8353C43.7498 40.6124 43.5304 40.4522 43.2763 40.3892C43.0221 40.3262 42.7533 40.3653 42.5277 40.4982C30.4238 48.1761 13.967 38.9723 14.1544 24.6278C14.16 19.6891 16.1244 14.9542 19.6167 11.4621C23.109 7.96989 27.8439 6.00561 32.7826 6.00017Z" fill="black"/>
</svg>
