<svg width="20" height="20" viewBox="0 0 20 20" fill="none" xmlns="http://www.w3.org/2000/svg">
<g id="Linkdin">
<path id="Vector" d="M18.4469 0.290833H2.24083C1.3553 0.290833 0.581604 0.927997 0.581604 1.80312V18.0452C0.581604 18.9251 1.3553 19.7092 2.24083 19.7092H18.4422C19.3325 19.7092 20 18.9199 20 18.0452V1.80312C20.0052 0.927997 19.3325 0.290833 18.4469 0.290833ZM6.60086 16.477H3.81901V7.82758H6.60086V16.477ZM5.30616 6.51251H5.28622C4.39592 6.51251 3.81944 5.84977 3.81944 5.02016C3.81944 4.17537 4.4111 3.52824 5.32133 3.52824C6.23157 3.52824 6.78854 4.1706 6.80848 5.02016C6.80805 5.84977 6.23157 6.51251 5.30616 6.51251ZM16.7678 16.477H13.9859V11.7477C13.9859 10.6146 13.5811 9.84051 12.5746 9.84051C11.8057 9.84051 11.3506 10.3606 11.1481 10.8673C11.0723 11.0494 11.0519 11.2973 11.0519 11.5504V16.477H8.27006V7.82758H11.0519V9.03126C11.4568 8.45478 12.0891 7.62517 13.5607 7.62517C15.3868 7.62517 16.7682 8.82884 16.7682 11.4239L16.7678 16.477Z" fill="white"/>
</g>
</svg>
