<svg width="73" height="73" viewBox="0 0 73 73" fill="none" xmlns="http://www.w3.org/2000/svg">
<g id="mingcute:check-2-line" clip-path="url(#clip0_2150_300)">
<g id="Group">
<path id="Vector" fill-rule="evenodd" clip-rule="evenodd" d="M58.985 9.67598C59.6497 9.27611 60.4435 9.14928 61.1998 9.32212C61.956 9.49497 62.6159 9.95403 63.041 10.603L66.011 15.133C66.3981 15.7248 66.5638 16.4343 66.4787 17.1363C66.3937 17.8384 66.0633 18.4878 65.546 18.97L65.537 18.982L65.495 19.021L65.324 19.18L64.649 19.825C60.9139 23.4478 57.2922 27.1856 53.789 31.033C47.198 38.281 39.371 47.767 34.103 56.971C32.633 59.539 29.042 60.091 26.912 57.874L7.45698 37.66C7.17818 37.3702 6.96048 37.0273 6.81683 36.6517C6.67318 36.2761 6.60651 35.8754 6.62079 35.4736C6.63506 35.0717 6.72998 34.6768 6.89992 34.3123C7.06985 33.9478 7.31132 33.6213 7.60998 33.352L13.49 28.048C14.0067 27.5821 14.6693 27.3103 15.3643 27.2791C16.0593 27.2479 16.7436 27.4593 17.3 27.877L27.227 35.32C42.734 20.029 51.527 14.161 58.985 9.67598ZM59.615 16.324C52.745 20.62 44.171 26.851 29.621 41.398C29.1104 41.9086 28.4328 42.2179 27.7125 42.2691C26.9923 42.3204 26.2777 42.1101 25.7 41.677L15.674 34.159L13.931 35.731L29.882 52.309C35.42 43.099 43.043 33.931 49.352 26.995C52.6742 23.3453 56.1007 19.7919 59.627 16.339L59.615 16.324Z" fill="white"/>
</g>
</g>
<defs>
<clipPath id="clip0_2150_300">
<rect width="72" height="72" fill="white" transform="translate(0.5 0.276978)"/>
</clipPath>
</defs>
</svg>
