<svg width="73" height="73" viewBox="0 0 73 73" fill="none" xmlns="http://www.w3.org/2000/svg">
<g id="oui:package">
<path id="Vector" d="M65.5115 17.035L38.5115 3.53496C37.8869 3.22285 37.1982 3.06036 36.5 3.06036C35.8018 3.06036 35.1131 3.22285 34.4885 3.53496L7.4885 17.035C6.74114 17.4084 6.1125 17.9826 5.67299 18.6931C5.23347 19.4036 5.00045 20.2225 5 21.058V51.496C5.00045 52.3314 5.23347 53.1503 5.67299 53.8608C6.1125 54.5714 6.74114 55.1455 7.4885 55.519L34.4885 69.019C35.1131 69.3311 35.8018 69.4936 36.5 69.4936C37.1982 69.4936 37.8869 69.3311 38.5115 69.019L65.5115 55.519C66.2589 55.1455 66.8875 54.5714 67.327 53.8608C67.7665 53.1503 67.9996 52.3314 68 51.496V21.058C67.9996 20.2225 67.7665 19.4036 67.327 18.6931C66.8875 17.9826 66.2589 17.4084 65.5115 17.035ZM26.9195 26.8135L50.963 14.7895L60.674 19.645L36.5 31.5205L26.9195 26.8135ZM36.5 7.55796L45.932 12.274L21.8435 24.3205L12.326 19.645L36.5 7.55796ZM9.5 23.272L19.625 28.2445V40.777C19.625 41.3737 19.8621 41.946 20.284 42.368C20.706 42.7899 21.2783 43.027 21.875 43.027C22.4717 43.027 23.044 42.7899 23.466 42.368C23.8879 41.946 24.125 41.3737 24.125 40.777V30.454L34.25 35.4265V63.871L9.5 51.496V23.272ZM38.75 63.871V35.431L63.5 23.272V51.496L38.75 63.871Z" fill="white"/>
</g>
</svg>
