<svg width="63" height="64" viewBox="0 0 63 64" fill="none" xmlns="http://www.w3.org/2000/svg">
<circle cx="31.5001" cy="32.0088" r="31" fill="#111C55" stroke="#273270"/>
<path d="M23.9741 22.6496C23.8395 22.6537 23.7071 22.6831 23.5849 22.7359C23.4626 22.7888 23.3529 22.8641 23.2622 22.9575C23.1716 23.0508 23.1018 23.1602 23.0571 23.2792C23.0124 23.3982 22.9937 23.5244 23.002 23.6504C23.1365 25.8103 23.7705 31.0804 26.806 34.367C30.441 38.3268 35.1749 39.6912 40.0318 39.4896C40.2921 39.475 40.5368 39.3684 40.7166 39.1914C40.8963 39.0143 40.9976 38.78 41.0001 38.5356V35.0762C40.997 34.7534 40.8783 34.441 40.663 34.189C40.4477 33.937 40.1483 33.7601 39.8127 33.6867L37.3805 33.1827C37.0796 33.1226 36.7665 33.1485 36.4815 33.2569C36.1965 33.3654 35.9529 33.5515 35.782 33.7911L35.2441 34.5542C35.1947 34.6241 35.1208 34.6756 35.0353 34.6999C34.9497 34.7242 34.8577 34.7198 34.7753 34.6874C33.538 34.187 28.6081 32.0272 28.0663 28.3841C28.0557 28.3138 28.0676 28.242 28.1004 28.178C28.1332 28.1139 28.1855 28.0604 28.2508 28.0241L29.2268 27.4662C29.4945 27.3107 29.7047 27.082 29.8291 26.811C29.9535 26.5399 29.986 26.2396 29.9222 25.9507L29.3881 23.6324C29.3101 23.3075 29.1142 23.0181 28.834 22.8133C28.5538 22.6086 28.2065 22.5011 27.8512 22.5092L23.9741 22.6496Z" stroke="white"/>
</svg>
