<svg width="64" height="64" viewBox="0 0 64 64" fill="none" xmlns="http://www.w3.org/2000/svg">
<circle cx="31.5581" cy="31.7107" r="31.5" fill="#22325D"/>
<path d="M41.0581 29.3537H37.916C37.4993 29.3537 37.0997 29.5142 36.8051 29.8C36.5104 30.0858 36.3449 30.4733 36.3449 30.8775V34.6869C36.3449 35.091 36.5104 35.4786 36.8051 35.7644C37.0997 36.0502 37.4993 36.2107 37.916 36.2107H39.487C39.9037 36.2107 40.3033 36.0502 40.598 35.7644C40.8926 35.4786 41.0581 35.091 41.0581 34.6869V29.3537ZM41.0581 29.3537C41.0581 28.1466 40.8118 26.9515 40.3331 25.8372C39.8545 24.723 39.1531 23.7117 38.2695 22.8618C37.3858 22.0118 36.3374 21.3399 35.1846 20.885C34.0319 20.43 32.7977 20.201 31.5532 20.211C30.3095 20.2022 29.0764 20.4322 27.9248 20.8877C26.7732 21.3433 25.7259 22.0153 24.8433 22.8652C23.9607 23.715 23.2602 24.7259 22.7822 25.8395C22.3042 26.9531 22.0581 28.1474 22.0581 29.3537V34.6869C22.0581 35.091 22.2236 35.4786 22.5183 35.7644C22.8129 36.0502 23.2125 36.2107 23.6292 36.2107H25.2002C25.6169 36.2107 26.0165 36.0502 26.3111 35.7644C26.6058 35.4786 26.7713 35.091 26.7713 34.6869V30.8775C26.7713 30.4733 26.6058 30.0858 26.3111 29.8C26.0165 29.5142 25.6169 29.3537 25.2002 29.3537H22.0581" stroke="white" stroke-width="2" stroke-linecap="round" stroke-linejoin="round"/>
<path d="M41.0581 35.2107V37.3536C41.0581 38.1113 40.7191 38.838 40.1156 39.3739C39.5121 39.9097 38.6937 40.2107 37.8402 40.2107H32.0581" stroke="white" stroke-width="2" stroke-linecap="round" stroke-linejoin="round"/>
</svg>
