<svg width="20" height="16" viewBox="0 0 20 16" fill="none" xmlns="http://www.w3.org/2000/svg">
<path d="M19.5759 2.00526C18.8568 2.31748 18.096 2.52317 17.3175 2.61585C18.1357 2.13711 18.751 1.37654 19.048 0.476795C18.2744 0.928786 17.4296 1.24592 16.5495 1.41463C16.179 1.02654 15.7333 0.717799 15.2396 0.507183C14.7459 0.296566 14.2145 0.188468 13.6777 0.18946C11.5044 0.18946 9.74561 1.92145 9.74561 4.05651C9.74407 4.35349 9.77812 4.64959 9.84705 4.93847C8.28861 4.86547 6.76258 4.46819 5.3666 3.77207C3.97061 3.07595 2.7354 2.09631 1.74 0.895826C1.39078 1.48411 1.2061 2.15533 1.20525 2.83933C1.20525 4.18023 1.90533 5.36549 2.96244 6.05988C2.33613 6.04503 1.72266 5.87938 1.1741 5.577V5.62489C1.1741 7.50055 2.53193 9.06094 4.32906 9.41611C3.99111 9.50614 3.64286 9.55175 3.29311 9.5518C3.04494 9.55223 2.79733 9.52817 2.55389 9.47997C3.0535 11.0164 4.50758 12.1338 6.23002 12.1658C4.83041 13.2436 3.11205 13.8262 1.34503 13.8219C1.03137 13.8215 0.718013 13.8028 0.406525 13.7661C2.20413 14.9131 4.29369 15.5198 6.42651 15.514C13.6693 15.514 17.6262 9.61964 17.6262 4.50747C17.6262 4.33986 17.6218 4.17225 17.6138 4.00862C18.3819 3.46271 19.0463 2.7843 19.5759 2.00526Z" fill="white"/>
</svg>
